<svg xmlns="http://www.w3.org/2000/svg" width="470" height="626" style="width:100%;height:100%"><defs><clipPath id="a"><path d="M0 0h470v626H0z"/></clipPath></defs><g clip-path="url(#a)"><g class="Motaman" display="block"><path fill="#E6E5E0" d="M265.7726 133.286s-23.409 3.1138-48.4133 27.7933c-16.2218 16.0113-27.5405 40.1381-32.5363 46.7092-4.9958 6.573-11.5586 14.0032-11.5586 14.0032l23.0616 52.7685s19.4747-9.8724 32.5986-24.5148c13.1218-14.6425 36.848-116.7594 36.848-116.7594z"/><path fill="#979189" d="M162.138 228.2232l9.481-7.298c.7614-.423 1.711-.2746 2.3.3657 2.6646 2.9022 9.4073 11.1735 14.5943 21.0402 5.5938 10.6378 8.0603 25.6264 8.5982 31.4505.1332 1.4425-.758 2.7814-2.1415 3.2117l-15.7163 4.8803c-1.5525.4814-3.2294-.1816-4.0251-1.5975-2.7134-4.8254-8.6653-16.2794-11.635-28.6464-2.7978-11.6598-3.0367-16.9547-3.2207-20.2144-.0754-1.3134.616-2.5517 1.7652-3.192z"/><path fill="#F69EAA" d="M178.2388 278.0816s-11.309 4.3741-27.9758 1.839c-21.5149-3.2726-37.6015-23.7204-37.6015-23.7204l5.3274-21.0794s17.9236 5.295 26.9207 4.1417c13.2933-1.7036 19.3116-7.1348 19.3116-7.1348s7.1955 8.577 11.4724 21.7005c3.631 11.1381 2.5452 24.2534 2.5452 24.2534z"/></g><g class="Motaman" display="block"><path fill="#EAE8E4" d="M401.78 574.812c0 20.704-51.774 37.486-115.638 37.486-63.866 0-115.642-16.782-115.642-37.486 0-20.702 51.776-37.482 115.642-37.482 63.864 0 115.638 16.78 115.638 37.482z"/><path fill="#272021" d="M327.87 546.626l.154 22.986c-.044 2.46.548 4.898 1.778 7.028 1.694 2.934 6.538 7.358 12.356 9.192 12.876 4.062 19.192.428 22.544-1.36 1.178-.63 1.98-1.782 2.156-3.106.404-3.042.728-8.954-2.094-12.372-3.922-4.746-10.604-7.662-11.042-10.466-.438-2.802.79-12.622.79-12.622l-26.642.72z"/><path fill="#070506" d="M353.784 558.746c-.02-.072-.05-.146-.062-.218-.378-2.408.476-9.988.726-12.078v-.002l-.006-.542-10.674.29-3.432.092-12.444 3.692.016 2.414c3.452 1.664 8.758 3.582 13.806 4.408 4.552.748 9.926 1.81 12.07 1.944z"/><path fill="#272021" d="M223.21 547.55s.714 9.152-2.51 11.862c-3.222 2.71-10.64 2.192-16.094 7.12-3.49 3.154-3.648 10.478-3.464 14.332.076 1.586 1.122 2.952 2.618 3.474 3.362 1.17 10.062 2.804 19.136 1.586 10.112-1.354 20.682-8.688 24.478-11.546.936-.702 1.532-1.766 1.654-2.93l2.286-21.828-28.104-2.07z"/><path fill="#070506" d="M251.116 551.514c.046-.734.086-1.386.118-1.898l-3.754-.276-3.442-.254-20.782 1.8v.002c-.014.424-.038.874-.074 1.334v.004c1.91 1.644 6.556 4.022 11.572 5.224 5.666 1.356 12.528 2.43 15.464 2.64l.898-8.576z"/><path fill="#E6E5E0" d="M387.064 142.802c24.194 20.782 37.508 47.962 42.04 62.012 4.532 14.052 3.298 41.678-1.548 52.236-8.452 18.416-25.686 26.082-25.686 26.082l-2.762 27.174s3.728-.42 2.4 11c-1.076 9.25-2.792 8.984-2.792 8.984L358.98 550.468s-7.846 2.618-17.578 2.618c-9.348 0-17.202-2.992-17.202-2.992s-6.492-58.71-8.976-77.04c-2.664-19.642-12.574-73.916-12.574-73.916l-6.25-1.1s-10.616 40.666-16.83 62.534c-6.556 23.068-23.642 93.272-23.642 93.272s-12.874.908-22.444.16c-11.754-.916-17.152-3.648-17.152-3.648s4.148-87.996 7.45-125.654c3.536-40.302 9.888-83.94 9.888-83.94s-3.662-1.344-4.64-11.35c-.978-9.994 1.356-8.682 1.356-8.682s-10.348-10.186-13.02-33.636c-2.55-22.36 7.562-99.836 35.39-143.564 5.23-8.22 15.268-18.244 33.696-21.188 30.276-4.84 75.956-.718 100.612 20.46z"/><path fill="#979189" d="M270.564 126.38s30.482-5.714 30.434-4.904c-.052.812-3.286 44.316-3.286 44.316s-9.938 9.914-19.142 6.686c-12.22-4.284-8.006-46.098-8.006-46.098z"/><path fill="#070506" d="M406.616 270.018l-5.324-10.434-33.588 19.218s16.668 10.504 33.294 12.894l.872-8.562s-3.79-2.722 4.746-13.116z"/><path fill="#979189" d="M344.452 119.592s2.65 7.892 2.788 18.652c.17 13.646-4.456 33.57-15.03 36.172-13.68 3.362-21.14-8.13-21.14-8.13l28.446-47.952 4.936 1.258z"/><path fill="#070506" d="M309.3 198.904c.064-.064.128-.13.194-.194.32-.298.546-.65.68-1.058.206-.392.3-.816.282-1.268.018-.452-.076-.876-.282-1.268-.134-.408-.36-.76-.68-1.058-.224-.172-.444-.344-.666-.514-.514-.298-1.07-.448-1.662-.45-.292.04-.584.078-.876.118-.556.156-1.04.438-1.45.846-.066.064-.13.13-.194.194-.322.298-.55.65-.682 1.058-.206.392-.298.814-.284 1.268-.014.452.078.874.284 1.268.132.406.36.76.682 1.058.22.17.444.342.666.514.512.298 1.066.446 1.66.448l.874-.116c.56-.156 1.042-.438 1.454-.846zM299.724 283.03l.194-.194c.322-.298.548-.65.68-1.058.206-.392.3-.816.284-1.27.016-.452-.078-.876-.284-1.268-.132-.408-.358-.76-.68-1.058-.222-.172-.444-.342-.666-.514-.512-.298-1.07-.448-1.662-.45-.292.04-.582.078-.874.118-.558.156-1.042.438-1.452.846l-.194.194c-.32.298-.546.652-.678 1.058-.208.392-.302.814-.286 1.268-.016.452.078.878.286 1.27.132.408.358.76.678 1.058.222.172.444.342.666.514.514.298 1.066.448 1.66.45.29-.04.584-.078.876-.118.558-.156 1.042-.438 1.452-.846zM303.21 323.164l.194-.194c.322-.298.548-.65.68-1.058.206-.392.3-.816.284-1.27.016-.452-.078-.874-.284-1.268-.132-.406-.358-.76-.68-1.058-.222-.17-.444-.342-.664-.514-.514-.298-1.072-.448-1.664-.45-.292.04-.582.08-.874.118-.558.156-1.04.44-1.452.846l-.194.194c-.32.298-.546.652-.678 1.058-.208.392-.302.816-.286 1.268-.016.452.078.878.286 1.27.132.408.358.76.678 1.058.222.172.444.342.666.514.514.298 1.066.448 1.66.45.29-.04.586-.078.876-.118.558-.156 1.042-.438 1.452-.846z"/><path fill="#98928A" d="M302.122 174.734c-13.444 37.82-19.154 78.31-16.708 118.376.68 11.174 2.014 22.3 3.94 33.33.288 1.646 2.796.948 2.508-.692-6.842-39.198-5.672-79.714 3.392-118.46 2.524-10.788 5.664-21.422 9.376-31.862.562-1.582-1.95-2.262-2.508-.692z"/><path fill="#070506" d="M362.786 190.098c7.128 13.178 11.774 27.59 13.628 42.462.164 1.314 2.25 1.33 2.084 0-1.904-15.254-6.596-29.988-13.914-43.512-.638-1.18-2.436-.13-1.798 1.05zM218.028 266.33c.766-12.222 2.998-24.286 6.628-35.982.396-1.284-1.614-1.834-2.01-.556-3.684 11.872-5.924 24.134-6.702 36.538-.084 1.338 2 1.334 2.084 0z"/><path fill="#0E0B0C" d="M311.286 350.914c-47.976 3.074-77.62-10.15-77.62-10.15s-6.348 43.638-9.884 83.94c-3.302 37.658-7.454 125.654-7.454 125.654s5.4 2.728 17.154 3.646c9.57.748 22.444-.162 22.444-.162s19.084-69.49 25.644-92.558c6.214-21.87 18.35-62.856 18.35-62.856l2.728.708s9.91 54.274 12.574 73.916c2.484 18.328 8.976 77.042 8.976 77.042s7.854 2.99 17.202 2.99c9.732 0 17.58-2.618 17.58-2.618l39.734-220.176s-32.23 17.088-87.428 20.624z"/><path fill="#3F3837" d="M311.448 331.928c-41.016 2.338-70.57-7.268-81.336-11.484.174.192.272.286.272.286s-2.332-1.312-1.354 8.682c.978 10.006 4.638 11.35 4.638 11.35s-.036.208-.104.598c12.062 4.496 39.69 12.65 77.544 10.692 47.828-2.476 77.468-15.69 87.454-20.904l.154-.858s1.714.266 2.79-8.984c1.328-11.42-2.398-11-2.398-11l.002-.022c-14.734 6.098-50.888 19.546-87.662 21.644z"/><path fill="#070506" d="M284.818 333.454c3.516.07 7.03.212 10.54.442 1.578.102 3.248.096 4.808.37.212.036.464.082.63.202-.3-.218-.04.09.024.35.168.682.194 1.398.256 2.094.312 3.444.424 6.92.284 10.376-.044 1.124-.088 1.792-1.182 2.094-1.308.362-2.746.3-4.094.366-4.01.198-8.026.302-12.03-.052-1.168-.102-2.17 1.072-2.17 2.17 0 1.258.998 2.066 2.17 2.168 4.21.372 8.43.236 12.642.024 3.434-.174 7.67-.392 8.722-4.422.49-1.882.346-4.016.33-5.942-.016-2.062-.11-4.126-.282-6.182-.154-1.852-.13-4.026-1.248-5.604-1.24-1.752-3.252-1.922-5.22-2.082-4.72-.382-9.448-.618-14.18-.71-2.792-.054-2.792 4.284 0 4.338z"/><path fill="#070506" d="M298.382 344.3c2.364.16 4.766-.082 7.062-.658 1.1-.276 1.87-1.57 1.514-2.668-.368-1.138-1.488-1.812-2.668-1.514-.758.19-1.524.34-2.298.448.19-.026.384-.054.576-.08-1.39.182-2.788.232-4.186.136-1.132-.076-2.22 1.05-2.17 2.168.054 1.24.956 2.088 2.17 2.168z"/><path fill="#969089" d="M279.548 397.34c8.392.346 16.668 1.874 24.642 4.51 1.728.57 2.468-2.152.75-2.718-8.206-2.714-16.758-4.254-25.392-4.612-1.814-.074-1.81 2.744 0 2.82z"/></g><g class="Motaman" display="block"><path fill="#979189" d="M368.1577 241.131l2.5004-3.505c1.0165-1.4238 2.819-2.0576 4.4957-1.5618 4.259 1.2581 12.7715 4.413 22.115 11.4602 8.3972 6.3314 14.2847 16.8767 17.1354 22.0759.7574 1.3864 2.1773 5.7606 1.0417 7.338-1.676 2.3358-4.608 5.085-10.8643 7.5109-7.91 3.0673-9.4057-.3777-9.4057-.3777s-4.349-8.1574-12.87-20.8457c-5.9986-8.9346-10.8168-14.0846-13.6244-16.7184-1.4988-1.4053-1.717-3.7032-.5238-5.3764z"/><path fill="#F69EAA" d="M369.4755 244.938s-25.86 2.1322-27.3209 1.8385c-1.457-.2944-19.2553-12.3738-20.498-14.509-1.2445-2.1346-1.6611-6.1462-1.1954-8.926.5747-3.432-3.2485-7.0652-7.1056-4.558-4.1254 2.6797-5.6638 6.8194-5.4788 10.5729 0 0-7.6742-1.391-13.4601-1.3802-5.786.0107-16.4382-.358-18.0698 1.378-1.6328 1.7405-2.5993 5.7323 1.4032 7.6896 4.0005 1.9577 12.6226 2.1537 12.6226 2.1537l11.2618 4.2378s-12.9736 3.955-15.992 5.331c-3.4535 1.573-2.7561 9.7571 1.9627 10.3697 0 0-1.5495 3.3432.5202 7.2772 2.248 4.2687 5.1273 3.5184 5.1273 3.5184s-1.1638 1.2564-.2551 4.209c.7335 2.3783 2.4915 4.2811 7.7505 4.3886 8.4147.1719 10.8634-1.6531 11.5789-3.0018l7.477-2.3824s6.6007 5.3601 13.7382 3.9844c7.1394-1.3762 7.8792-2.2171 7.8792-2.2171s16.166 8.7426 31.9351 10.4273c13.0045 1.3895 25.2787-2.4214 25.2787-2.4214s.244-8.5586-10.921-22.5684c-10.2677-12.8835-18.2387-15.4118-18.2387-15.4118z"/><path fill="#070506" d="M287.8787 259.8981c5.2387-1.0855 10.4778-2.1692 15.7146-3.2543 1.3121-.272.8878-2.3143-.4263-2.042-5.2368 1.0852-10.475 2.1727-15.7138 3.2583-1.3117.2738-.8886 2.3104.4255 2.038zM293.1196 270.938c3.8178-.8358 7.634-1.6694 11.4517-2.5053 1.3093-.2856.8869-2.3284-.4263-2.042l-11.4513 2.5073c-1.3088.2876-.8873 2.3265.426 2.04zM307.3151 230.4727c1.6382.4385 3.2204 1.0684 4.6902 1.9139 1.603.9259 3.0434 2.09 4.4743 3.2583.436.3564 1.156.1346 1.441-.3008.3365-.5116.1371-1.085-.3013-1.443-1.4657-1.1977-2.9451-2.3925-4.5973-3.3286-1.5856-.901-3.2813-1.6053-5.045-2.0768-.5428-.144-1.1311.1013-1.3194.6576-.1695.5093.1123 1.1738.6575 1.3194zM341.9485 271.5066a6.1432 6.1432 0 01-.694 1.099c-.0389.049-.073.1011-.1169.145.047-.0486.1142-.128.0256-.034-.077.0815-.154.163-.2337.241a5.7531 5.7531 0 01-.499.4474 4.686 4.686 0 01-.2363.18c-.1489.1088-.0674-.0002.0094-.004-.0325.0007-.0987.0656-.126.0815-.1873.1208-.3852.2296-.5833.3281-.1906.095-.3849.1723-.583.2505-.1244.0505.2132-.065.0187-.008-.0458.0157-.0959.0302-.142.044-.119.037-.2395.0663-.3605.0936-.5297.1249-.9494.6784-.807 1.233.1386.537.6641.94 1.233.807 2.0473-.4785 3.9008-1.8666 4.8368-3.764.128-.2576.2128-.4877.151-.7834-.0523-.2506-.228-.5244-.4519-.6575-.4344-.2607-1.1821-.221-1.441.3008zM303.8174 277.2305c5.4618.061 10.8575-1.2024 15.7076-3.7187 1.1911-.6165.2415-2.4736-.9512-1.8548-4.517 2.3406-9.5353 3.5518-14.6268 3.4931-1.3373-.015-1.4712 2.0642-.1296 2.0804z"/></g><g class="Motaman" display="block"><path fill="#F85269" d="M83.0305 222.6355s-9.0895-3.941-11.9854 1.258c-2.5387 4.555.9862 8.6003 4.606 8.9906 4.021.4373 7.4269 1.06 10.297 5.0259 2.1043 2.9086 4.1577 6.3365 6.5615 8.5741 2.4039 2.2397 9.3333-10.339 9.3333-10.339l-7.483-12.0945-11.3294-1.415z"/><path fill="#070506" d="M152.5985 74.6544c-50.1186-.8623-91.4739 40.7104-92.371 92.8547-.8972 52.1443 39.0035 95.115 89.122 95.9774 50.1186.8623 91.474-40.7105 92.371-92.8548.8972-52.1442-39.0034-95.115-89.122-95.9773zm-.3186 18.5133c40.29.6932 72.3666 35.238 71.6453 77.1579-.1175 6.829-1.1032 13.431-2.8373 19.7L89.6431 128.0234c13.239-21.3394 36.4487-35.3062 62.6368-34.8556zm-2.6118 151.8035c-40.29-.6932-72.3665-35.2381-71.6453-77.156.1342-7.8008 1.3956-15.3082 3.6192-22.357L214.04 207.171c-12.8795 22.9918-36.998 38.2712-64.3719 37.8002z"/><path fill="#DB0000" d="M150.1084 71.383c-50.1186-.8622-91.4738 40.7085-92.371 92.8528-.8972 52.1463 39.0035 95.117 89.122 95.9793 50.1187.8623 91.474-40.7104 92.3711-92.8567.8972-52.1442-39.0035-95.113-89.1221-95.9753zm-.3185 18.5133c40.29.6932 72.3665 35.2382 71.6453 77.156-.1176 6.831-1.1033 13.433-2.8374 19.702L87.153 124.752c13.239-21.3394 36.4487-35.3062 62.6369-34.8557zM147.178 241.7c-40.29-.6932-72.3665-35.2381-71.6452-77.158.1341-7.7988 1.3955-15.3062 3.619-22.355l132.398 61.7128c-12.8794 22.9918-36.9978 38.2712-64.3718 37.8002z"/><path fill="#C41E1F" d="M150.1104 71.3831c-50.1186-.8623-91.4778 40.7084-92.375 92.8527-.8972 52.1462 39.0075 95.117 89.126 95.9794 50.1187.8623 91.474-40.7105 92.3711-92.8567.8972-52.1443-39.0035-95.113-89.1221-95.9754zm-.3185 18.5133c40.29.6932 72.3665 35.2381 71.6453 77.1559-.1176 6.831-1.1053 13.433-2.8394 19.7L87.153 124.752c13.239-21.3394 36.4487-35.3062 62.6389-34.8556zm61.356 115.8566l-.5298-.2471c-13.088 22.092-36.708 36.654-63.438 36.194-40.2901-.6932-72.3706-35.2382-71.6493-77.158.1244-7.2349 1.2326-14.2109 3.1644-20.8086l-2.7582-1.2917 10.814-15.8363 133.9856 63.1463-9.5887 16.0014z"/><path fill="#54BDC2" d="M135.3959 260.558c.698.12 1.3656-.3126 1.5374-.9997 1.7344-6.9812 10.4506-42.3785 13.507-61.6728 3.4018-21.4726 9.0145-57.1554 12.5748-67.2556 2.3953-6.7978 12.6798-9.0672 16.3655-19.3653 3.6121-10.0874 4.3323-43.224-8.4429-47.3383-5.8424-1.8828-12.6634-.608-22.6508 15.9007-9.9875 16.5066-8.2357 24.0939-5.3535 32.9388 2.8803 8.8428 7.5997 11.1304 7.4629 16.2908-.6377 23.9265-10.7086 55.166-14.2117 77.405-2.6069 16.5375-6.5547 45.3259-7.2405 51.701a1.3464 1.3464 0 001.113 1.4694l5.3388.926zM133.2813 113.2738c-2.767 6.3113-6.084 7.2664-6.7486 11.7196-1.5845 10.5924-.3353 46.6932.391 68.4209.6522 19.5261-1.1984 55.9317-1.582 63.1161-.0382.7055-.6137 1.2576-1.322 1.2715l-5.4167.1048c-.7123.0118-1.3112-.5246-1.371-1.2338-.536-6.3921-1.8325-34.9787-2.4068-51.709-.771-22.5006 2.9254-55.51-.981-79.1226-.8425-5.0953-6.5277-5.6551-8.3932-14.7686-1.12-5.474.7051-37.7274 1.1867-45.8383.0619-1.0371.9258-1.8404 1.9658-1.8305 1.048.012 1.8997.8488 1.9277 1.8974l.1361 26.9644c.0164.6764 2.036.7151 2.0817.0378l1.3428-27.0069c.0697-1.033.9316-1.8302 1.9656-1.8205l.02.0004c1.044.012 1.8937.8467 1.9257 1.8914l.252 26.9803c.0202.6785 2.04.7112 2.0816.0358l1.2265-26.9889c.0638-1.037.9298-1.8422 1.9697-1.8283l.018.0003c1.042.0139 1.8878.8426 1.924 1.8813l.3695 27.0024c.0243.6765 2.0421.7052 2.0818.0298l1.1082-26.975c.0599-1.041.93-1.8482 1.9718-1.8343l.036.0007c1.03.0137 1.8701.8242 1.9204 1.8533.4085 8.6963 2.457 42.8686.3187 47.7485zM142.4391 261.3613c-.8897-.2554-1.408-1.1724-1.1587-2.0623 1.8333-6.5674 9.0175-31.8656 15.5985-49.187 7.622-20.0478 17.7616-35.5196 19.034-42.7388 1.2744-7.2211-3.6031-14.3821-1.8066-26.719 2.715-18.64 29.9995-55.2881 35.346-58.4106 4.8171-2.8136 6.994-.6398 6.6207 2.5743-1.9344 16.6331-60.7438 161.0708-67.178 176.8345-.3237.7945-1.191 1.2157-2.0171.9794l-4.4388-1.2705z"/><path fill="#070506" d="M79.1616 141.507c-.1725 1.1912-.3175 1.7108-.4801 2.9082l131.9229 61.7705c.3269-1.2125.642-1.7452.9572-2.968l-132.4-61.7107z"/><path fill="#C41E1F" d="M87.153 124.752l133.9855 63.1462-9.5887 16.0015L76.339 140.5883l10.814-15.8363z"/><path fill="#F69EAA" d="M78.4984 240.5042c1.217 4.4876 4.5262 7.587 12.0673 12.3554 7.543 4.7705 18.8839 7.958 25.3085 5.3002 5.6592-2.341 7.3513-20.2405 4.4252-23.6314-3.3595-3.8923-6.7412.3621-6.7412.3621s.931-5.9829-2.7279-7.586c-4.602-2.0135-7.2775 2.003-7.2775 2.003s2.2695-6.3498-1.1489-8.679c-3.1515-2.1465-6.0671-.1044-6.0671-.1044s.3735-3.108-1.3133-5.2833c-1.7592-2.2726-8.5315-2.6592-12.4693 4.6181-3.9378 7.2774-5.4383 15.5508-4.0558 20.6453z"/><path fill="#070506" d="M96.0139 219.1784c-5.3523 6.3628-8.5465 14.255-9.0854 22.555-.087 1.3407 1.9967 1.3726 2.0837.0359.4988-7.7106 3.4716-15.1745 8.4501-21.0918.8556-1.0174-.5846-2.5264-1.4484-1.4991zM103.6996 227.7459c-4.167 5.7271-5.2265 12.89-6.1863 19.7305-.1848 1.325 1.899 1.3488 2.0817.0358.9097-6.4853 1.9403-13.2566 5.8883-18.6835.7908-1.0865-.999-2.1595-1.7837-1.0828zM112.9099 234.4393c-2.2578 5.778-3.8271 11.7739-4.7468 17.907-.0836.5606.5141 1.045 1.024 1.0598.6237.0167.9762-.4693 1.0597-1.024.8923-5.9375 2.4768-11.765 4.6612-17.3543.4896-1.2518-1.5147-1.8304-1.9981-.5885z"/></g><g class="Motaman" display="block"><path fill="#070506" d="M350.318 103.77s3.024-14.496-4.424-27.336c-7.924-13.66-21.682-19.436-42.468-17.474-20.788 1.96-29.908 16.564-34.06 29.808l55.898 11.69-4.776 23.752 13.322.434 16.508-20.874z"/><path fill="#F69EAA" d="M337.28 109.424s2.452-9.158 8.194-10.008c5.744-.854 7.654 3.054 6.606 9.564-1.048 6.508-6.116 12.702-12.756 10.67 0 0 .132 9.964-5.026 18.934-5.534 9.622-19.494 24.956-33.042 34.574l-8.222-11.926s-16.748-.278-25.89-20.418c-9.144-20.14 3.38-51.92 3.38-51.92s4.14-10.462 12.122-13.388 6.49 2.292 11.508 4.682c5.016 2.39 16.744-1.514 21.01-4.64 4.266-3.126 10.704-1.756 13.184 1.846 2.482 3.602 1.62 8.496-.388 12.128-2.01 3.63 2.804 7.282 2.88 9.524.076 2.24-2.206 10.578-4.628 18.106-2.424 7.526-.402 7.56 3.668 6.9 4.072-.66 4.176-5.458 7.4-14.628z"/><path fill="#070506" d="M297.376 111.898c-.568-.13-1.194.17-1.344.762-.02.076-.04.152-.064.226a1.038 1.038 0 01-.03.078c-.016.034-.034.078-.042.092-.036.07-.074.138-.114.204-.03.048-.072.138-.116.178-.006.006-.002 0-.012.01-.094.11-.196.212-.304.308-.012.01-.052.044-.084.068-.026.02-.056.04-.066.046-.118.08-.248.14-.372.212-.072.024-.142.048-.214.068-.062.018-.124.034-.19.048a.782.782 0 01-.078.014c-.008 0-.002 0-.012.002-.082-.004-.166.008-.25.006-.046 0-.09-.002-.138-.008-.01 0-.002.002-.01 0-.098-.022-.218-.066-.266-.078-.01-.004-.004-.002-.012-.004-.006-.002-.002-.002-.008-.006-.058-.03-.116-.058-.17-.092-.058-.032-.11-.068-.164-.102-.008-.006-.004-.002-.012-.006-.006-.008 0-.004-.012-.014-.094-.092-.184-.182-.274-.276-.012-.01-.008-.006-.014-.012-.004-.008 0-.004-.006-.014a2.7844 2.7844 0 01-.126-.198c-.034-.054-.058-.116-.092-.17-.04-.124-.072-.25-.1-.376-.058-.316-.232-.612-.51-.758-.548-.29-1.156-.118-1.494.392-.096.148-.196.296-.298.442-.044.06-.09.12-.13.18-.01.014-.006.01-.01.016-.012.014-.026.03-.038.046-.102.124-.21.244-.326.358-.06.062-.126.118-.194.178-.008.006-.004.004-.01.01-.004.002 0-.002-.01.004-.064.032-.122.08-.186.116-.03.016-.112.054-.14.068-.176.066-.358.118-.544.156-.082.02-.166.034-.25.048-.03.006-.064.01-.092.014-.184.018-.366.026-.55.014-.02-.002-.04-.004-.07-.012-.014-.004-.07-.022-.118-.036a3.3526 3.3526 0 01-.114-.05c-.012-.008-.094-.054-.15-.092-.028-.024-.058-.052-.086-.078-.05-.048-.092-.104-.142-.148-.006-.008-.002-.002-.008-.008-.006-.01-.016-.022-.022-.032a2.2808 2.2808 0 01-.106-.176c-.03-.052-.1-.272-.034-.05-.028-.092-.062-.182-.086-.276-.004-.01-.016-.066-.028-.114-.004-.04-.016-.142-.018-.162a3.4998 3.4998 0 01-.002-.29l.016-.164c.034-.166.072-.328.122-.49.04-.124.042-.256.032-.386.436-3.656 1.666-7.174 2.86-10.638.194-.558-.218-1.194-.762-1.344-.6-.164-1.15.204-1.344.762-1.274 3.694-2.498 7.398-2.952 11.294-.246.966-.182 1.992.272 2.888.424.842 1.276 1.536 2.208 1.722.608.122 1.2.06 1.804-.05.514-.092 1.036-.254 1.484-.53.276-.17.494-.408.72-.632.726.864 1.82 1.426 2.96 1.342 1.788-.132 3.356-1.406 3.804-3.156.142-.552-.18-1.212-.762-1.344zM315.932 87.1902c-1.55-2.204-3.842-3.622-6.526-3.936-2.584-.306-5.194.672-7.09 2.418-.716.662-.718 1.968 0 2.628.766.704 1.864.706 2.63 0 .082-.076.166-.152.252-.226.106-.094.176-.136.022-.026.182-.132.37-.258.564-.374.22-.13.45-.238.678-.354.25-.128-.242.072.022-.008.11-.034.214-.078.322-.114.216-.068.434-.13.656-.178.11-.026.222-.038.332-.066.272-.07-.274.012.01-.004.484-.028.952-.036 1.438 0-.18-.012-.186-.032-.004.004.108.022.214.042.32.068.216.048.428.108.636.178.106.034.206.076.31.112-.17-.058-.136-.068.014.006.2.094.394.194.586.306.19.11.368.232.552.358.28.188-.062-.08.082.062.078.076.166.144.246.218.162.148.318.304.466.468.072.082.142.168.214.25.196.224-.242-.338.056.084.558.794 1.65 1.244 2.542.668.79-.508 1.268-1.692.67-2.542zM286.306 83.1142c-1.726-1.592-3.918-2.536-6.268-2.652-2.422-.12-4.704.778-6.582 2.258-.766.602-.68 2.004 0 2.628.814.746 1.81.644 2.63 0-.296.23.252-.166.31-.202.19-.122.384-.234.586-.338.064-.034.688-.302.324-.162.158-.062.316-.118.478-.17.216-.07.432-.128.652-.178.076-.018.766-.128.338-.078.418-.05.842-.062 1.264-.042.088.004.674.066.24.006.218.03.432.074.646.124.212.05.424.108.63.176.056.018.58.214.392.136-.186-.076.32.156.374.184.194.102.384.21.568.326.06.038.61.426.294.184.172.134.334.28.498.428.714.66 1.928.76 2.626 0 .658-.716.764-1.924 0-2.628z"/><path fill="#FEFEFF" d="M306.014 95.854s5.978-.29 7.586 1.282c1.61 1.574 1.506 5.662-2.828 5.754-4.334.09-9.878-.078-10.764-1.984-.886-1.908-1.16-4.988 6.006-5.052zM277.438 94.574s5.752-.288 7.294 1.208c1.546 1.498 1.44 5.398-2.728 5.492-4.166.092-9.494-.06-10.346-1.876-.848-1.816-1.108-4.752 5.78-4.824z"/><path fill="#070506" d="M304.5287 101.792c3.374 0 3.378-5.24 0-5.24-3.374 0-3.378 5.24 0 5.24zM276.1407 100.422c3.374 0 3.378-5.244 0-5.244-3.374 0-3.378 5.244 0 5.244z"/><path fill="#070506" d="M306.644 158.618c-6.67 1.07-13.816.16-20.19-1.968-6.896-2.302-12.22-7.058-15.896-13.298-8.538-14.492-5.07-31.306-.636-46.518 1.87-6.42 4.068-13.108 7.898-18.652 1.362-1.972-1.858-3.83-3.212-1.874-3.778 5.472-6.022 12.094-7.936 18.414-2.412 7.972-4.584 16.274-5.094 24.616-.962 15.708 5.846 33.512 21.238 39.902 7.682 3.19 16.602 4.28 24.814 2.962 2.356-.378 1.358-3.96-.986-3.584z"/><path fill="#070506" d="M302.5275 150.1012c-3.984 1.464-8.46 1.358-12.324-.446-.534-.248-1.178-.148-1.494.394-.278.472-.144 1.242.392 1.494 4.382 2.042 9.452 2.338 14.006.664 1.308-.48.742-2.592-.58-2.106zM346.83 104.824c-1.792.034-3.352 1.236-4.13 2.808-.894 1.802-.806 3.832-.65 5.78.048.59.468 1.094 1.092 1.094.556 0 1.14-.502 1.092-1.094-.064-.81-.128-1.626-.104-2.438.022-.716.144-1.532.398-2.124.224-.52.526-.924 1.01-1.348.134-.116-.114.076.028-.026.072-.052.146-.1.222-.148.06-.036.122-.07.182-.104-.004.004.258-.12.154-.078-.094.04.096-.03.116-.036.082-.028.166-.044.248-.07.078-.024.142-.03.024-.012.106-.016.21-.018.318-.02.59-.01 1.092-.494 1.092-1.092 0-.584-.5-1.102-1.092-1.092zM296.612 138.2462c1.966 1.692 4.962 2.002 7.168.562.49-.32.738-1.01.4-1.536-.316-.488-1.008-.742-1.532-.4-.202.132-.412.24-.628.346-.14.072.25-.09-.004 0-.052.02-.104.036-.156.054-.108.036-.214.068-.324.096-.122.032-.244.06-.37.084-.03.004-.222.032-.06.01.16-.02-.03 0-.06.002-.252.024-.504.03-.758.016a5.27 5.27 0 01-.168-.016c-.032-.002-.22-.02-.06-.002.16.02-.032-.006-.062-.01-.07-.012-.138-.026-.206-.042-.234-.05-.462-.12-.686-.204-.028-.01-.2-.084-.06-.02.138.062-.034-.02-.06-.032a4.0438 4.0438 0 01-.332-.176 4.2367 4.2367 0 01-.284-.18c-.008-.006-.216-.168-.09-.062.128.104-.076-.072-.082-.076-.444-.382-1.154-.468-1.586 0-.384.42-.474 1.178 0 1.586zM305.9121 125.5948c-.386-.816-.99-1.656-1.682-2.242-.686-.58-1.486-.892-2.338-1.148-1.384-.416-1.976 1.748-.596 2.162.26.078.516.166.772.256.012.002.006 0 .012.002.05.024.102.046.15.072.012.004.022.012.032.018-1.418.566-2.54 1.79-2.998 3.244-.564 1.798.018 3.864 1.766 4.758 1.664.852 3.744-.012 4.704-1.536 1.042-1.654.996-3.866.178-5.586z"/></g></g></svg>