<svg xmlns="http://www.w3.org/2000/svg" width="470" height="626" style="width:100%;height:100%"><defs><clipPath id="a"><path d="M0 0h470v626H0z"/></clipPath></defs><g clip-path="url(#a)"><g display="block"><path fill="#E7E7E7" d="M222.51 512.555c62.7775 0 113.748 22.328 113.748 49.828 0 27.5-50.9705 49.828-113.748 49.828s-113.748-22.328-113.748-49.828c0-27.5 50.9705-49.828 113.748-49.828z"/><path d="M222.51 512.555c62.7775 0 113.748 22.328 113.748 49.828 0 27.5-50.9705 49.828-113.748 49.828s-113.748-22.328-113.748-49.828c0-27.5 50.9705-49.828 113.748-49.828z" fill="none"/></g><g display="block"><path fill="#FF9FAA" d="M135.968 75.567l-4.3634-17.128s4.8254-5.905 5.5376-13.7522c.7086-7.8388-.5234-14.5207-.1976-20.212.3025-5.311 4.505-16.3063.473-18.6285-3.7946-2.1873-8.4542.4259-9.2684 8.8589-.8307 8.6084-1.938 11.9396-1.938 11.9396s-2.162-12.2672-2.369-15.4364c-.207-3.1692-2.6688-7.3838-5.5759-6.1998 0 0-4.2938.4187-3.325 8.4707.9533 7.9067 1.6076 14.6724 1.6076 14.6724s-3.3563-5.2645-6.227-4.7222c-4.027.76-4.2698 4.6541-4.2698 4.6541s-3.16-1.1866-5.8436.3816c-2.6815 1.5681-2.4293 5.4299-1.4365 8.4476.9929 3.0197 3.7585 7.3126 3.7585 7.3126s-1.6276 8.5603 1.1122 12.458c2.742 3.8996 5.6156 5.3033 5.6156 5.3033l3.4913 16.8784 23.2184-3.2981z"/><path d="M105.4432 28.7647a40.4606 40.4606 0 001.1552 6.9174c.285 1.1098.6171 2.2065 1.0023 3.2857.366 1.0324.7375 2.1165 1.3332 3.0436 1.9682 3.0703 7.0118 2.807 8.479-.5978.743-1.7281.8055-3.8707.1177-5.6256-.491-1.2567-2.4788-.5757-1.9854.6888.5296 1.3564.5396 3.1976-.2476 4.4636-.769 1.2368-2.6822 1.466-3.8605.701-.8457-.55-1.1848-1.6001-1.528-2.4956a38.0212 38.0212 0 01-1.119-3.3863c-.6514-2.3325-1.0557-4.7192-1.2474-7.1319-.106-1.348-2.2058-1.2148-2.0995.1371z"/><path d="M101.9014 44.4128c1.038 1.4074 2.8148 1.8846 4.4788 1.5234 1.6995-.3696 2.9883-1.6884 3.9005-3.0968.3005-.4626.01-1.1972-.469-1.4104-.5678-.2556-1.0919-.025-1.4122.471-.093.1424.0058-.0024-.0548.0817-.0404.0568-.0808.1135-.1232.1704-.094.1264-.192.251-.2964.3721a4.8246 4.8246 0 01-.3199.3496c-.06.064-.1221.1242-.1863.1846-.0377.0365-.1196.102-.0341.0302-.2415.2002-.4966.3752-.767.5332-.28.1625.0882-.0319-.0791.0452a5.0833 5.0833 0 01-.24.0999 3.6687 3.6687 0 01-.4278.1401c-.0237.0056-.2137.042-.0888.0219.1408-.0232-.1413.0152-.1393.015a3.2701 3.2701 0 01-.4192.0255c-.0201-.0007-.219-.0078-.0922 0 .1448.0085-.1092-.015-.1376-.0191a3.5241 3.5241 0 01-.4084-.0856c-.0182-.0028-.2025-.063-.0918-.024.1291.0436-.103-.0434-.1277-.0538-.124-.056-.2408-.1266-.3614-.1929-.1332-.0755.1183.0925-.0004-.006-.0572-.0484-.1184-.0945-.1738-.145a2.5747 2.5747 0 01-.1303-.1237c.1524.1544-.0357-.0558-.0555-.0826-.3255-.4417-.9912-.6307-1.4596-.2835-.4416.3275-.6331.9854-.2835 1.4596zM135.004 39.5072c-1.4321-2.7185-3.0037-5.3617-4.731-7.9025-1.4034-2.063-3.0992-4.1228-5.6637-4.6608-1.3718-.2893-2.7891-.1406-4.1622.0413-1.2437.1674-2.5104.3523-3.6412.9292-2.2732 1.1606-2.9824 3.7424-2.268 6.0888.8159 2.6725 3.4208 4.5968 6.1513 4.8835 1.338.1391 1.7727-1.9196.4267-2.0602-2.3712-.248-4.7224-2.0306-4.7611-4.5875-.0448-2.9573 3.5297-3.1587 5.7295-3.3244 1.3844-.1004 2.7125.0413 3.856.8866 1.0339.7622 1.7964 1.8188 2.5143 2.8682 1.7595 2.5749 3.3517 5.2568 4.8046 8.016.629 1.1935 2.3696.0096 1.7449-1.1782z"/><path d="M119.8554 37.6584c-1.8596 2.6148-3.5938 5.3676-4.4728 8.4815-.8646 3.0569-.6356 6.2267.3736 9.2193.4324 1.2805 2.422.5954 1.9892-.6911-.8973-2.6612-1.0674-5.388-.3007-8.1036.773-2.7402 2.3569-5.2187 3.9925-7.5182.7763-1.095-.796-2.4914-1.5818-1.3879zM130.8715 57.3103c-.3808.2774-.7769.5338-1.1912.7573-.0542.0295-.1105.0573-.1668.085.1049-.051.103-.0488-.0076.0065-.0856.0397-.1692.0792-.2568.119-.2142.0962-.431.1825-.6521.265-.4307.1565-.8658.277-1.3099.3822-.1226.026-.1226.026 0 0l-.184.0361c-.0932.0161-.1867.0262-.28.0403a9.4144 9.4144 0 01-.7483.081c-.5486.0398-1.0423.551-.9792 1.1182.063.565.5298 1.0236 1.1163.9813 2.0966-.151 4.141-.8857 5.8378-2.127.4438-.3236.6287-.991.2814-1.4614-.3275-.4416-.9833-.6313-1.4596-.2835z"/></g><g display="block"><path fill="#11A416" d="M108.0094 72.0495c-.207-1.0508.479-2.0576 1.532-2.2586l23.3478-4.479c.9521-.1825 1.89.3675 2.1965 1.2855l21.6276 64.598c2.4574 7.3374-1.0548 16.4416-7.802 20.2334l-.143.0815c-2.0359 1.143-3.8712 2.5938-5.577 4.1883-28.6956 26.813-33.6703-76.0014-35.182-83.6491z"/><path d="M135.0895 66.5952c-.3085-.9179-1.246-1.464-2.1962-1.2816l-23.3517 4.4793c-1.051.2029-1.7383 1.2178-1.5314 2.2686.3407 1.7194.8969 4.5271 1.606 8.0805l27.9038-6.2838-2.4305-7.263z"/></g><g display="block"><path d="M151.3479 229.0954l-23.2203-69.2692s-2.751-11.8956 8.6341-22.4569c11.3852-10.5632 16.0819-10.3855 20.5024-7.412l13.5517 31.9364 10.1117 26.3682s5.0952 10.4874 3.2636 16.2894c-2.8386 8.9952-14.2112 15.558-24.2512 22.6196-4.813 3.3861-8.592 1.9245-8.592 1.9245z"/><path fill="#9E9F9F" d="M157.2641 129.9572c-2.5401-1.7095-5.1783-2.4796-9.1194-.8348-2.1763 1.238-4.4444 2.6473-6.7222 4.2307-1.4237 1.1244-2.961 2.4363-4.6628 4.0163-11.3851 10.5632-8.632 22.4588-8.632 22.4588l.0354.1115c4.0245-6.0542 10.1501-13.4395 18.0701-17.5337 6.3146-3.2634 10.6989-5.14 13.6711-6.2282l-2.6402-6.2206z"/></g><g display="block"><path fill="#004758" d="M284.894 542.256c1.306 1.438.956 4.706 1.07 6.63.058 1.004.734 5.022.944 5.374 1.56 2.618 7.662 14.148 10.194 18.368 2.864 4.77 7.412 14.342 3.186 19.25-4.226 4.906-13.358 5.998-18.266 5.452-4.906-.546-10.904-4.498-11.858-9.814-.846-4.72-2.15-25.04-2.014-29.298.018-.556-.13-1.102-.42-1.578-.628-1.018-1.836-4.49-2.516-5.826-.878-1.726-1.628-3.43.74-5.35 3.312-2.684 16.544-5.846 18.94-3.208z"/><path fill="#FF9FAA" d="M260.498 531.964l5.682 16.5s2.998 3.296 9.832 1.526c7.482-1.936 8.31-4.984 8.31-4.984l-3.548-20.504-20.276 7.462z"/><path d="M262.656 538.526c3.788 1.016 11.034 2.492 20.954 2.43l-2.376-13.798-19.252 9.316.674 2.052z"/></g><path fill="#006880" d="M184.6082 399.059l21.405-35.1344c8.0041-13.1401 1.3295-30.2943-13.4508-34.5714l-6.083-1.7622c-12.0524-3.4872-24.7076 3.1778-28.651 15.0895l-1.1682 3.5202a23.3038 23.3038 0 01-.7118 1.8772l-14.8742 32.0971c-5.3043 12.3447-13.5082 27.2305 5.9478 32.9024l4.2318.6733c10.4405 3.7737 21.909 3.9238 33.3544-14.6916z" display="block"/><g display="block"><path d="M190.9277 363.1866c-.6009 4.9653 1.9433 21.057 1.9433 21.057l2.7655-4.6587 10.4503-15.0346s-9.8129-2.611-15.159-1.3637z"/><path d="M190.9277 363.1866c-.6009 4.9653 1.9433 21.057 1.9433 21.057l2.7655-4.6587 10.4503-15.0346s-9.8129-2.611-15.159-1.3637z" fill="none"/></g><g display="block"><path fill="#006880" d="M186.194 325.716l66.312 1.884c4.324.124 7.868 3.458 8.24 7.768 2.068 23.926 8.438 96.772 9.762 101.716 3.358 12.534 11.03 71.4 13.454 90.344.586 4.584-2.002 8.998-6.32 10.646-1.71.652-3.794 1.236-6.31 1.638-2.812.446-5.14.636-7.056.668-4.536.076-8.538-2.894-9.732-7.268-4.794-17.58-19.112-70.016-21.764-78.858-2.69-8.968-15.774-65.174-19.848-82.744-.744-3.212.728-4.688-2.494-5.384-1.618-.35-7.098-2.162-8.262-3.34l-27.284-.074c-5.392-5.462 3.628-37.214 11.302-36.996z"/><path d="M203.432 365.566c2.928.716 5.8 1.662 8.566 2.88 1.234.544 2.312-1.276 1.068-1.826-6.3-2.776-13.02-4.362-19.904-4.656-1.358-.058-1.356 2.058 0 2.114.708.03 1.408.132 2.112.19"/></g><g display="block"><path fill="#004758" d="M172.4242 495.1695c-.7522-2.6037-3.6083-5.8739-2.2418-8.7659 1.2004-2.537 17.7-9.0503 20.4338-7.2692 2.7356 1.781 2.441 5.919 3.1175 7.9667.6783 2.0455 5.4327 16.7784 5.4327 16.7784s2.4476 8.684-12.518 17.2885c0 0-5.6018 6.3557-8.756 11.6074-3.156 5.2517-7.7927 9.309-13.7353 10.9225-5.9426 1.6134-12.332.2463-15.9931-3.2631-4.3235-4.147-4.386-10.9239-1.4378-16.1697 2.9482-5.2459 11.868-9.3208 16.1007-12.9505 4.2325-3.6317 8.4651-7.2634 9.603-10.8051 1.1378-3.5437.3693-4.0421-.0057-5.34z"/><path fill="#FF9FAA" d="M166.562 476.5865l5.7535 12.1495s3.6644 1.1604 9.7669-.6697c7.7173-2.316 8.1975-5.8371 8.1975-5.8371l-6.6955-17.4229-17.0223 11.7802z"/><path d="M168.9013 481.524c3.1376.7873 9.6392 1.4549 20.5166-1.5372l-4.1591-10.8243-17.1833 10.6203.8258 1.7413z"/></g><g display="block"><path fill="#11A416" d="M177.0978 180.6217c-9.2601 1.0174-23.7156 18.9227-26.1142 50.8076-1.7817 23.663 1.9744 31.8884 6.2774 48.7848 1.201 4.7132.364 24.7352 1.8813 30.732 1.1819 4.6707 4.7458 7.216 4.7458 7.216s-2.1314 6.1523.082 9.4785c2.2155 3.3243 27.2304 11.9312 51.4727 11.5117 24.2423-.4194 43.5278-6.0334 43.5278-6.0334s1.1075-2.2949.8908-5.3687c-.1608-2.2924-1.3396-3.48-1.3396-3.48s2.6564-8.0886 2.309-14.3183c-.3456-6.2297-6.17-16.8798-7.608-25.4274-1.44-8.5478-3.6734-18.5103-.976-39.0472 2.6993-20.5349 9.2721-42.5543-1.3032-48.0492-10.5753-5.497-53.7452-19.0125-73.8458-16.8064z"/><path fill="#9E9F9F" d="M167.8014 224.9979c-5.184 3.5547-12.595 7.1296-16.9825 9.1303-.17 3.447-.1418 6.5385.0468 9.3576 4.6087-2.5597 12.5442-7.1868 19.9914-12.5834 10.0274-7.2672 17.471-16.813 17.471-16.813l-4.0904-4.082s-7.4164 8.8082-16.4363 14.9905z"/><path d="M260.6269 308.3067c-.5569-3.2458-2.1341-7.3455-3.7213-11.6235a381.782 381.782 0 01-.7432-2.0238 2.146 2.146 0 00-.0376-.1029 135.1326 135.1326 0 01-.7638-2.1743c-.0524-.1533-.105-.3045-.1554-.4577-.2583-.7662-.5086-1.5322-.737-2.2917-.002 0-.002-.002-.0019-.004-8.1899-5.1856-20.6464-12.9748-27.8158-16.9622-11.0938-6.1712-34.3268-16.3951-34.3268-16.3951s-13.8247 9.9538-19.4601 14.9484c-2.6003 2.3062-11.4787 8.3398-15.2132 11.764.3485 4.0352.3686 10.6655.5417 16.6511 5.551-4.8865 14.5105-11.3143 17.6912-14.1492 6.0405-5.3793 17.2657-13.401 17.2657-13.401s19.041 7.16 31.0276 13.7319c8.1544 4.4725 27.9734 17.0678 36.4499 22.49z"/><path fill="#02790D" d="M225.4768 212.249c1.3299-.9293.1136-3.1722-1.2346-2.2312-7.0767 4.949-18.6803 7.5545-27.9402 5.459.0344-.1032.0826-.1961.0934-.318.2958-3.262 1.3655-6.254 3.1517-8.9992.8963-1.3796-1.2774-2.7104-2.1715-1.3368-1.977 3.037-3.1174 6.3974-3.4868 9.9898-6.6023-2.2178-11.5378-7.2117-11.894-15.9963-.0661-1.632-2.6132-1.7031-2.5473-.0592.4072 10.0342 6.1992 15.8762 13.8657 18.4428-.0024.016-.0126.0257-.015.0417-5.5996 35.7676-1.997 73.6134 5.5574 108.8423.3429 1.6044 2.818.9856 2.473-.6188-7.4715-34.8348-11.0041-72.1608-5.565-107.5681 9.7751 2.3094 21.7966-.1122 29.7132-5.648z"/><path fill="#9E9F9F" d="M251.0574 267.0655c-.1359-3.452-.099-7.3703.2106-11.9123-5.024-3.4215-12.7402-9.1882-18.699-15.9423-12.3777-14.033-14.5467-24.01-14.5467-24.01l-7.1688 2.2742s3.0953 13.6835 14.5573 26.571c8.8084 9.907 21.133 19.5877 25.6466 23.0194z"/><path fill="#02790D" d="M215.4429 339.1503c24.2422-.4194 43.5276-6.0294 43.5276-6.0294s1.1057-2.299.889-5.3728c-.1415-2.0058-1.059-3.1614-1.285-3.4227-17.4728 4.1416-38.3145 4.1439-56.9035 3.1962-19.4042-.9906-37.7829-9.3614-37.7829-9.3614s-2.1334 6.1561.08 9.4824c2.2154 3.3243 27.2325 11.9272 51.4748 11.5077z"/></g><g display="block"><path fill="#11A416" d="M257.6754 196.014c6.0703 1.191 13.3084 23.0778 27.1042 27.7983 10.4634 3.5814 19.4003-1.3303 25.281-6.4087 5.2257-4.5142 12.7287-5.2238 18.7235-1.796 8.2097 4.6956 10.7488 15.3714 5.4722 23.2181-9.1683 13.6359-25.0958 31.4038-45.351 30.3112-22.0073-1.1862-46.0997-16.0789-48.5996-27.4457-2.8956-13.1607 6.1467-47.879 17.3697-45.6772z"/><path d="M316.1117 214.1439c-2.1804.6386-4.2561 1.705-6.0524 3.2572-.2165.1866-.445.3715-.6703.5595-.1006.082-.198.1672-.2991.2511a41.8731 41.8731 0 01-1.4462 1.1222c-.0349.0248-.071.0471-.104.0726-.4541.3331-.9243.6571-1.4034.9762-.0574.0368-.1096.0772-.1675.1159l11.6212 9.1256-1.4783-15.4803zM285.304 268.817c-.8703-9.5571-.9689-27.534 7.492-43.8068-2.5447.0954-5.226-.2425-8.0183-1.1985-13.7952-4.7224-21.0301-26.6061-27.1017-27.7996-11.2236-2.2-20.2634 32.517-17.3703 45.679 2.366 10.7482 24.041 24.6433 44.9983 27.126z"/><path fill="#9E9F9F" d="M295.6621 268.7982c-.6477-4.0813-1.2582-9.9487-1.2278-17.4834.0482-12.384 6.075-24.4823 8.6918-29.1551-3.3427 1.7289-7.1537 2.9056-11.3134 2.87-1.38 2.3416-3.5421 6.9578-5.5859 15.2746-2.3433 9.5346-1.9934 21.3256-1.4569 28.453 1.3819.1743 2.7608.3038 4.1335.379 2.3113.1257 4.5636-.0053 6.7587-.3381z"/></g><path fill="#006880" d="M161.2925 481.4177s-29.9915-50.4105-25.8367-81.0895c4.1529-30.6789 47.0957-21.0128 42.6026 10.374-3.7338 26.0853 10.0743 60.2465 10.0743 60.2465s-5.5984 9.8053-26.8402 10.469z" display="block"/><g display="block"><path d="M209.98 132.648c1.7882 2.084 6.9402 1.6235 9.589.8447 3.9923-1.1736 13.8252 2.0914 10.8333 14.2033-2.994 12.1117-14.4922 42.6691-4.297 50.0617 6.8328 4.954 9.3529-9.1514 18.1105-5.069 5.3416 2.4906 8.2052 2.283 8.5442-13.6974.3074-14.4488 3.266-44.9463-6.1634-56.8864-6.6038-8.3595-14.0551-12.0074-25.2699-10.8114-2.6051.2776-3.2939-.5606-5.7027-1.5887-3.4903-1.4915-9.3567-3.094-16.0482-1.2088-8.9208 2.5136-21.2906 20.8915-26.106 36.578-4.9841 16.2346-7.1864 30.0092-2.1511 37.164 4.431 6.3006 8.4674 2.9673 8.4674 2.9673s-5.8107-13.0503.3822-32.0617c6.193-19.0114 11.502-21.2328 20.9013-24.1114 6.0868-1.8633 6.7776 1.1296 8.9104 3.6157z"/><path fill="#FF9FAA" d="M176.5444 183.9498s-4.6904-13.5685 3.147-32.0616c7.8373-18.4951 10.659-27.6741 20.3157-29.7445 6.2529-1.3413 9.1296.468 11.0481 3.1412 1.6105 2.24 4.4407 3.296 7.1603 2.743 4.0963-.8292 9.6308-1.2169 12.7047 1.6692 5.2922 4.9622 4.5696 8.9465 1.9862 21.2119-2.9608 14.045-.7874 22.4577-5.4476 42.1469-.0998.4198-1.7313 6.2375-1.4029 6.4832-4.6649 2.7424-15.2768 6.4912-27.2325 4.101-10.2015-2.0373-9.4428-10.932-9.4428-10.932s-7.052-.862-9.7668-2.5794c-2.1864-1.3852-3.7548-3.282-4.8142-5.5613 1.0637-.1493 1.7448-.6176 1.7448-.6176z"/><path d="M200.0998 163.481c-.0603.0986-.0668.1184-.0461.0889.0084-.0158.0208-.0355.0293-.0533.0062-.0119.0125-.0218.0168-.0357zM199.7269 163.9464l.0061-.0059c-.1134.0594-.1258.0752-.0954.0619.0284-.0194.0588-.0367.0873-.056h.002zM198.3599 163.9747c-.006-.0041-.01-.0062-.0158-.0124l.0118.0123h.004z"/><path d="M201.5564 162.6945c-1.424-.3591-1.3276 1.6077-2.6213 1.4916-1.3555-.1215-.69-1.5604-1.411-2.2173-.6229-.5687-1.673-.407-1.8655.4788-.094.432-.3755.8355-.878.6818-.5345-.1605-.5503-.771-.4676-1.2312.2597-1.4504 1.2306-2.8582 1.9204-4.1345 1.6095-2.9755 3.383-5.8591 5.2962-8.6494.851-1.2406-1.1412-2.4612-1.9881-1.2245-2.5904 3.7789-5.1501 7.7866-6.9962 11.9928-.7308 1.6635-1.0134 3.9256.7361 5.0865.9497.6282 2.0841.6225 3.0049.1698.522.6923 1.2744 1.2019 2.1634 1.3425 1.6823.2672 3.3082-.7454 3.8872-2.3324.2093-.5733-.1937-1.3068-.7805-1.4545zM214.7056 169.7756c-.2645-.0661-.5433-.1226-.7973-.2105-.7163-.2527-1.3195-.8109-1.6255-1.5062-.4525-1.0188.6563-3.2796-.8234-3.652-.6404-.163-1.2302.1654-1.4506.7805-.3528.982-.3567 2.0943-.1071 3.1503-1.2266 1.906-3.1167 3.2666-5.2106 4.1002-2.0717.8262-4.6551 1.1163-6.76.2672-.5847-.2356-1.2814.2183-1.4505.7825-.1952.6497.1918 1.2168.7785 1.4525 2.5369 1.0232 5.678.664 8.1753-.3063 2.253-.876 4.25-2.28 5.7461-4.1618.9185.9396 2.131 1.5339 3.4755 1.615.6113.0363 1.2085-.526 1.1947-1.1385-.0172-.8086-.5464-1.021-1.145-1.1729z"/><path d="M212.0587 167.1995c.0096.0182.0128.0503.0201.0805.0025-.022-.0045-.0641-.0237-.0966v.002c-.0003.008.0037.008.0036.014zM214.4925 169.7347c-.012-.0023-.024-.0026-.0359-.0049.008.0022.018.0024.026.0046l.01.0003zM201.1465 179.6636c2.7652.6683 5.8194-.167 7.7765-2.2601.4165-.4465.51-1.1965.0383-1.6496-1.1154-1.0722-2.1986.6051-3.1323 1.0996-.9378.4964-2.008.7476-3.0691.701-.8134-.035-2.105-.503-2.396.6565-.1495.5847.148 1.2998.7826 1.4526z"/><path fill="#FFF8FF" d="M208.2305 149.4959c-.217 1.9415 3.698 2.9786 7.312 3.7047 2.6823.5384 5.1487.8937 5.8668-.57.5544-1.1315.1863-3.1125-1.0696-4.08-2.0754-1.5985-7.0476-2.9423-10.0404-1.8195-1.1564.4333-1.9149 1.392-2.0688 2.7648zM184.1918 144.7687c-.2171 1.9415 3.6978 2.9786 7.312 3.7047 2.6822.5384 5.1486.8937 5.8668-.57.5544-1.1314.1863-3.1125-1.0696-4.08-2.0755-1.5985-7.0476-2.9423-10.0405-1.8194-1.1564.4332-1.9148 1.3919-2.0687 2.7647z"/><path d="M192.6733 148.1625c2.8552.0662 2.9643-4.3724.103-4.4389-2.8552-.0662-2.9642 4.3724-.103 4.4389zM216.195 152.4995c2.8572.0664 2.9643-4.3723.103-4.4388-2.8552-.0663-2.9642 4.3724-.103 4.4388zM210.9797 141.8936c1.38.014 2.9868-.3427 3.8339-.207 1.9713.3118 3.8496 1.2656 5.247 2.6905 1.1237 1.1443 2.1637 4.2573 4.2487 3.1174 3.3818-1.848-2.1927-6.8887-3.8092-7.9205-1.9674-1.256-11.816-4.2734-11.9942.3017-.0637 1.623 1.0917 2.0059 2.4738 2.018zM188.57 137.7404c1.2492-.5491 2.553-1.4771 3.689-1.5468 1.5807-.0993 3.1936.3982 4.4434 1.3695 1.075.8332 2.4396 2.2872 3.7783.894.7626-.7946.829-2.0154.0659-2.8393-1.8501-1.9995-4.4106-3.2152-7.1224-3.4282-2.7897-.2188-5.5301.8038-7.6636 2.5648-.8117.6693-.8075 2.1238-.0659 2.8392.8277.7975 1.8325.6047 2.8754.1468z"/><path d="M186.4747 127.175c-6.4264 11.836-11.0926 25.1453-12.8891 38.5052-.8297 6.1804-1.3583 13.6141 1.416 19.406 2.4708 5.1628 7.7652 7.7064 13.172 8.596 8.3643 1.3786 16.4294-.2987 24.5379-2.293 2.505-.616 1.5391-4.5135-.978-3.8938-6.7824 1.667-13.4188 3.1554-20.4547 2.552-4.7538-.4065-10.0603-1.828-12.482-6.3474-2.7075-5.0502-1.9478-12.0965-1.2429-17.5576.8346-6.4784 2.559-12.85 4.6588-19.023 2.0849-6.1333 4.585-12.1429 7.678-17.8386 1.229-2.2661-2.1829-4.3799-3.416-2.1059zM234.8243 135.7674c.5352-.3017-3.6837 15.7147-8.9354 30.5508-4.7912 13.5245-7.3696 28.2466-2.3243 33.421 7.7437 7.944 18.2621-1.1724 22.025-2.4614 3.164-1.0829 5.8283-2.0113 10.7158.909 0 0-7.7103-16.5335-6.8014-27.2472.4906-5.7962-2.701-18.3437-6.6716-25.8598-3.3689-6.38-8.008-9.3124-8.008-9.3124z"/><path d="M171.3755 157.9908s-22.4226 64.741-3.703 71.1752c27.127 9.3261 26.1134-37.154 26.1134-37.154s-11.2222 3.8407-16.48-6.048c-5.258-9.8887-5.9304-27.9732-5.9304-27.9732z"/><path fill="#FFF" d="M169.7148 154.2092c-3.6253 13.1134-6.5633 26.2628-8.1576 39.7854-.1215 1.0135 1.4642 1.0443 1.5836.0368 1.579-13.385 4.5056-26.3885 8.0918-39.3668.2729-.982-1.2449-1.4413-1.5178-.4554z"/></g><g display="block"><path fill="#F8747D" d="M363.114 204.5623c-1.7084 1.4369-6.2999 3.6058-6.2999 3.6058l-6.0914-2.0261.2102-9.009s11.0936-5.3233 14.2377.213c2.3112 4.0681-1.0176 6.3433-2.0565 7.2163z"/><path fill="#FFCF00" d="M380.1122 93.1432l-6.1245 42.4304a8.2544 8.2544 0 002.5654 7.2394l31.4841 29.0965c5.0207 4.6408 2.5395 13.026-4.197 14.1892l-42.2468 7.2873a8.246 8.246 0 00-6.0893 4.6752l-17.9459 38.9372c-2.8636 6.2082-11.6005 6.4396-14.788.392l-19.9894-37.9251c-1.265-2.4026-3.6332-4.0295-6.3292-4.3468l-42.5742-5.0388c-6.7901-.8036-9.7088-9.0432-4.9418-13.9434l29.8914-30.7288c1.8947-1.9467 2.7111-4.7003 2.181-7.3622l-8.3703-42.0465c-1.334-6.7054 5.6026-12.0321 11.7373-9.0112l38.4614 18.9337a8.243 8.243 0 007.674-.205l37.4038-20.9471c5.9657-3.3426 13.1742 1.6077 12.198 8.374z"/><path fill="#FF9FAA" d="M360.6354 221.1974s6.3622-1.5652 7.5897-6.5172c1.2389-4.982-7.7861-10.3263-11.9401-11.8145-4.154-1.4882-11.973-3.7763-14.73 1.2908-1.8752 3.4468 1.8193 6.5702 1.8193 6.5702s-3.1389-2.3183-6.4113-1.3273c-5.0667 1.5371-4.1739 6.148-2.1751 8.7095 2.3129 2.9617 5.4273 4.1968 5.4273 4.1968s-5.4728-1.643-7.509 1.1577c-2.2603 3.1065 1.1263 9.004 4.8641 9.9477 0 0-4.6346-2.5234-6.7191 3.234-1.5404 4.249 8.8949 11.8229 12.9715 9.4368 4.0779-2.3836 2.3991-6.6505 2.3991-6.6505s4.2471.6694 6.5128-3.0464c2.2676-3.7153.6678-5.4383.6678-5.4383s4.4452 1.0861 7.4252-3.0941c2.9813-4.1777-.1922-6.6552-.1922-6.6552z"/><path d="M360.3147 216.047a323.3007 323.3007 0 00-17.057-8.6459c-.6767-.3171-1.4547-.2574-1.8977.4202-.3648.5595-.2526 1.5817.4183 1.8971a323.3557 323.3557 0 0117.0596 8.6446c1.5466.8424 3.031-1.4712 1.4768-2.316zM350.9265 226.1016c-3.997-2.7457-8.2299-5.0994-12.6443-7.101-.6777-.307-1.5186.2628-1.7175.9089-.2413.7837.2299 1.408.9089 1.7175 4.1836 1.8949 8.1892 4.1912 11.9754 6.7925 1.4592 1.0038 2.9321-1.3196 1.4775-2.3179zM343.8332 235.873c-2.1941-2.0358-4.636-3.7836-7.2986-5.1538-.6364-.3257-1.5016-.2614-1.8958.4208-.3443.595-.2642 1.5446.4183 1.897 2.4808 1.2745 4.818 2.9002 6.7535 4.6952.5255.4882 1.3887.6347 1.942.081.4904-.4915.6436-1.4174.0806-1.9402z"/></g><path fill="#E3E3E3" d="M403.1092 235.1514c-2.1796-7.6996-5.2022-10.2-13.7616-11.3812-1.4962-.2068-1.5984-2.1462-.1322-2.509 8.388-2.074 11.1313-4.8764 12.49-12.7639.2368-1.3781 2.3465-1.4893 2.7269-.1436 2.1797 7.7011 5.2022 10.1999 13.7616 11.3812 1.4963.2067 1.5984 2.1462.1322 2.509-8.388 2.0739-11.1311 4.878-12.4899 12.7638-.2368 1.3798-2.3465 1.4909-2.727.1437zM268.999 153.603c5.0377-8.6907 4.6517-13.5999-1.76-22.3486-1.1206-1.5296.5387-3.3158 2.1466-2.3108 9.1967 5.7507 14.1196 5.776 22.4176.111 1.4494-.9902 3.3924.8148 2.5115 2.3331-5.039 8.6923-4.6517 13.6 1.76 22.3487 1.1206 1.5296-.5387 3.3158-2.1465 2.3108-9.1968-5.7507-14.121-5.7745-22.4176-.111-1.4509.9916-3.3939-.8133-2.5116-2.3332z" display="block"/></g></svg>