<svg xmlns="http://www.w3.org/2000/svg" width="470" height="626" style="width:100%;height:100%"><defs><clipPath id="a"><path d="M0 0h470v626H0z"/></clipPath></defs><g clip-path="url(#a)"><g display="block"><path fill="#EAE8E4" d="M281.668 533.286c0 23.346-49.288 42.274-110.084 42.274-60.798 0-110.084-18.928-110.084-42.274 0-23.348 49.286-42.274 110.084-42.274 60.796 0 110.084 18.926 110.084 42.274z"/><path fill="#B9026A" d="M229.29 520.766s-.766 8.1-1.97 9.742c-1.204 1.642-39.846 3.722-55.498 2.19-15.656-1.534-22.332-3.616-21.894-6.134.438-2.516 19.266-8.644 19.266-8.644l60.096 2.846z"/><path fill="#B9026A" d="M120.126 517.07s-.41 7.06.986 11.658c0 0 24.466 23.48 43.84 27.012 19.376 3.53 22.412-5.666 22.412-5.666s.576-6.484.166-8.046c-.412-1.56-67.404-24.958-67.404-24.958z"/><path fill="#F86E8B" d="M159.45 484.424s-.876 13.682 0 18.17c.876 4.488 11.276 5.584 16.748 3.394 5.474-2.188 2.19-24.19 2.19-24.19l-18.938 2.626z"/><path fill="#EF1183" d="M152.122 503.616c-.132-3.878.736-9.456 6.784-9.668 0 0 5.47 7.99 15.65 5.582 0 0-.438-7.224 4.816-8.318 5.254-1.096 8.32 2.298 15.764 8.318 7.442 6.022 17.078 11.494 26.82 13.246 9.744 1.75 8.512 8.562 6.706 10.862-1.77 2.254-48.852 2.818-61.002 1.396-12.15-1.424-13.902-.438-15.326-1.862-.802-.804-.63-5.762-.324-9.928.234-3.204.222-6.418.112-9.628z"/><path fill="#F98AA1" d="M125.188 500.076s-.874 13.684 0 18.172c.876 4.488 11.276 5.582 16.75 3.392 5.472-2.188 2.188-24.19 2.188-24.19l-18.938 2.626z"/><path fill="#070506" d="M154.088 285.416s-3.722 173.61-2.19 185.432c1.532 11.822 6.352 12.48 6.352 12.48s-2.41 5.034 0 6.13c2.408 1.094 20.36.656 22.768-.438 2.408-1.096 1.53-8.758 1.53-8.758s6.788.876 10.29-13.792c3.502-14.668 18.172-105.962 18.83-119.316.658-13.354 3.72-69.62-3.724-81.442-7.442-11.822-53.856 19.704-53.856 19.704z"/><path fill="#070506" d="M104.39 285.634s10.508 124.79 10.508 151.062c0 26.272-5.692 45.974 6.568 57.796 0 0-2.654 9.198 2.518 9.936 5.172.738 20.28-.246 22.414-2.052 2.136-1.808 2.626-5.338 2.216-8.786 0 0 7.226-1.288 10.072-21.868 2.846-20.578 6.13-87.568 6.13-87.568l5.474-108.59-65.9 10.07z"/><path fill="#EAE8E2" d="M163.262 428.764a821.59 821.59 0 00-3.228 44.064"/><path fill="#FEFEFF" d="M162.42 428.766a838.5572 838.5572 0 00-3.228 44.062c-.05 1.084 1.632 1.08 1.684 0a838.5515 838.5515 0 013.226-44.062c.108-1.078-1.576-1.07-1.682 0z"/><path fill="#EF1183" d="M124.968 508.944s1.422 11.166 15.106 7.552c0 0-1.422-7.442 3.394-10.398 4.816-2.954 9.666-2.312 14.34 2.518 6.568 6.786 25.834 25.834 28.352 29.554 2.518 3.724 2.846 7.554-8.102 9.852-10.946 2.298-22.768-2.298-35.138-10.508-12.368-8.21-20.142-13.464-22.22-16.528-2.08-3.066-.11-12.152 4.268-12.042z"/><path fill="#EAE8E2" d="M131.238 493.51c-.11 1.312-.218 2.626-.328 3.94-.034.392.204.87.472 1.14.28.28.738.49 1.142.472.416-.018.848-.156 1.14-.472.302-.33.434-.694.472-1.14.108-1.314.22-2.628.328-3.94.032-.392-.204-.876-.472-1.142-.28-.282-.74-.492-1.14-.474-.418.018-.85.156-1.142.474-.302.328-.434.694-.472 1.142zM139.238 494.064c-.11.548-.218 1.096-.328 1.642-.068.216-.076.432-.028.646.01.214.072.414.19.596.102.19.24.342.416.456.156.142.338.238.548.288.144.02.286.038.43.058.29-.002.562-.074.814-.22.108-.084.218-.17.326-.254.2-.2.338-.438.416-.712.108-.546.218-1.094.328-1.642.066-.214.076-.426.028-.642a1.202 1.202 0 00-.192-.6c-.1-.188-.24-.336-.414-.452-.158-.142-.34-.24-.55-.288-.142-.02-.284-.038-.428-.058-.292 0-.562.072-.814.22-.11.084-.218.17-.326.254-.202.2-.338.434-.416.708zM167.396 481.134c.008.058.018.12.026.18-.018-.142-.04-.286-.06-.43.084.624.088 1.252.008 1.876.02-.142.038-.284.058-.428-.056.424-.152.838-.28 1.242-.124.39-.042.896.162 1.244.196.334.582.654.966.74.88.202 1.71-.264 1.984-1.126.21-.668.324-1.366.378-2.064.05-.702-.022-1.396-.134-2.092-.06-.374-.428-.78-.74-.964-.346-.202-.854-.288-1.242-.162-.39.126-.768.366-.966.74-.054.128-.106.258-.16.386-.078.286-.078.57 0 .858zM174.182 480.898c-.282 1.214-.566 2.43-.848 3.644-.096.418-.056.868.164 1.242.194.336.578.656.964.742.412.094.876.076 1.242-.162.346-.222.646-.552.742-.964l.846-3.646c.098-.418.058-.866-.162-1.24-.196-.336-.58-.656-.964-.742-.412-.094-.876-.076-1.242.162-.346.222-.646.552-.742.964z"/><path fill="#2F982B" d="M106.998 238.118s-4.846 32.788-4.276 52.174c0 0 29.65 7.982 56.448 3.706 26.798-4.276 23.092-45.616 23.092-45.616l-75.264-10.264z"/><path fill="#2F982B" d="M146.268 140.412s69.178 1.904 80.716 1.464c8.73-.332 21.06-2.796 26.546-3.976 1.494-.322 2.924.754 3.034 2.276l3.056 42.48c.088 1.226-.724 2.34-1.922 2.626l-37.718 9.038s1.598 10.67 1.14 26.428c-.28 9.582-2.862 55.11-2.862 55.11l-110.946-30.664s6.624-98.972 38.956-104.782z"/><path fill="#B80269" d="M220.454 274.816c-.364-20.122 5.302-60.216-.472-80.496-8.172-28.702-22.082-46.348-22.082-46.348l-13.874-1.366c17.214 18.104 23.718 43.338 22.198 46.65-1.352 2.942-7.48 2.644-14.12 2.842-10.024.298-20.326-.174-21.164-3.736-7.668-32.59-25.626-46.968-25.626-46.968l-14.072-.262s8.45 16.77 9.644 22.206c3.848 17.528 1.844 64.66-8.334 69.06-6.62 2.862-19.182-.838-23.872-2.31-1.17-.366-2.384.406-2.554 1.62l-.872 6.432c-.176 1.3.488 2.558 1.664 3.138 3.084 1.518 9.076 4.808 12.678 9.022 10.706 12.516 9.782 44.516 9.782 44.516 0 1.23 2.462 26.46-.306 48.92-2.77 22.46-3.998 65.228-3.998 65.228s18.766 7.384 49.534 6.768c30.768-.614 40.922-5.844 40.922-5.844s5.16-126.048 4.924-139.072z"/><path fill="#E6E4DF" d="M162.098 162.898c-19.364-6.91-22.154-31.026 6.234-31.232 22.67-.166 38.352 20.29 24.506 29.25-1.53.988-3.378 1.84-5.568 2.508-2.19.666-7.332-7.732-9.452-8.84-.82-.428-2.156 10.682-6.242 10.332-2.804-.24-6.086-.808-9.478-2.018z"/><path fill="#EE0F82" d="M191.236 209.198s12.118-1.234 16.132 2.782c4.014 4.014-1.69 7.718-6.162 9.162-4.472 1.44-21.986 2.91-23.372-3.964-1.386-6.876 13.402-7.98 13.402-7.98z"/><path fill="#070506" d="M154.49 506.986c8.924 8.48 17.136 17.674 26.06 26.154.84.8 2.114-.472 1.274-1.272-8.926-8.48-17.136-17.674-26.062-26.156-.84-.796-2.114.474-1.272 1.274z"/></g><g display="block"><path fill="#F85269" d="M295.686 72.6877c1.1514 1.4253 2.8587 5.2257 2.8587 5.2257l-1.76 4.9645-7.3853-.3175s-4.1894-9.1835.3997-11.6742c3.3732-1.8314 5.187.936 5.887 1.8015z"/><path fill="#A8D84A" d="M393.6495 124.1127c-.4669-12.8142-1.7052-24.9072-12.285-36.6955-5.9922-6.6747-18.8529-10.1295-33.4926-10.4617-38.4197-.8694-41.3952-.7978-76.9617.1663-5.9248.159-23.7914 1.6889-31.0041 8.322-13.307 12.2381-13.5485 23.2848-13.5065 30.8268.0167 2.882.064 16.164.064 16.164l1.4397 54.703.3461 16.6056s-1.5296 23.9692 20.8007 32.7283c4.621 1.8132 10.2362 2.9892 17.128 3.1492 8.186.19 26.4103.781 43.8687 1.173 10.1605.2256 20.0665.3857 27.5765.358 20.4142-.0774 31.2777-2.1223 41.9724-11.146 9.8354-8.2976 13.0395-19.0758 13.6962-34.0866 1.5185-34.6535 1.5462-38.346.3576-71.8064z"/><path fill="#F69EAA" d="M308.5877 71.5059s-3.2058-4.0524-7.163-3.3137c-3.9834.743-4.867 8.9696-4.5748 12.441.2922 3.4694 1.2093 9.8312 5.7504 10.151 3.0882.2194 4.1221-3.4583 4.1221-3.4583s-.638 3.016 1.1468 5.0395c2.7612 3.1346 5.7814.9824 6.9644-1.2906 1.3696-2.6309 1.237-5.2717 1.237-5.2717s.6116 4.4665 3.2888 5.0136c2.9697.6065 6.0934-3.7547 5.5496-6.7477 0 0-.2955 4.1529 4.5211 3.7662 3.5535-.287 5.577-10.2582 2.529-12.404-3.048-2.1459-5.562.4536-5.562.4536s-.9084-3.2677-4.3183-3.678c-3.41-.4125-4.1222 1.3002-4.1222 1.3002s-.6749-3.5459-4.6522-4.317c-3.9754-.7731-4.7167 2.3159-4.7167 2.3159z"/><path fill="#070506" d="M324.575 78.9058c-.7432 2.243-1.1595 4.585-1.2716 6.9441-.0267.5683.5323 1.1051 1.094 1.074.6158-.0318 1.0456-.4858 1.074-1.094.0533-1.1406.157-2.0396.3628-3.1416.2079-1.092.4899-2.1686.8381-3.224.179-.5376-.2212-1.208-.7683-1.3268-.6033-.1324-1.1363.1905-1.329.7683z"/><path fill="#8BCA2D" d="M366.553 122.6741c1.01-.0093.9974-1.5773-.0145-1.5679l-9.5436.0886c-.0986-7.1774-.2392-14.3544-.3978-21.5313l9.7415-.0904c1.01-.0093.9974-1.5793-.0145-1.57l-9.7576.0907c-.0394-1.6617-.0529-3.3257-.0943-4.9894-.0294-1.2218-1.9313-1.2081-1.9.0176.0415 1.6637.055 3.3277.0924 4.9894l-21.5711.2002-.0463-4.9898c-.0114-1.222-1.9133-1.2063-1.902.0177l.0464 4.9898-21.3311.198-.0463-4.9899c-.0113-1.2219-1.9153-1.2062-1.904.0177l.0464 4.9898-21.0951.1958c-.0374-1.6617-.0529-3.3257-.0943-4.9894-.0314-1.2217-1.9313-1.208-1.9.0177.0395 1.6637.055 3.3276.0944 4.9893l-21.573.2002-.0464-4.9898c-.0113-1.2219-1.9133-1.2062-1.902.0177l.0464 4.9898-13.7134.1273c-1.01.0093-.9974 1.5793.0145 1.5699l13.7135-.1273.1998 21.533-13.7134.1274c-1.01.0093-.9974 1.5773.0145 1.5679l13.7135-.1273.1998 21.533-13.7134.1274c-1.01.0093-.9974 1.5793.0146 1.5699l13.7134-.1273.1998 21.5331-13.7134.1273c-1.01.0093-.9974 1.5773.0146 1.568l13.7134-.1274.1998 21.5351-13.7134.1273c-1.01.0094-.9974 1.5773.0146 1.568l13.7134-.1274.1998 21.5331-13.7134.1273c-1.01.0094-.9974 1.5773.0146 1.568l13.7134-.1274.0463 4.9918c.0114 1.222 1.9133 1.2063 1.902-.0176l-.0464-4.9918 20.9211-.1942c-.0205 1.6643-.0271 3.3284-.0477 4.9927-.0166 1.2222 1.8853 1.2045 1.9-.0177.0205-1.6642.027-3.3283.0456-4.9926l21.749-.2018.0464 4.9917c.0114 1.222 1.9153 1.2063 1.904-.0176l-.0464-4.9918 21.331-.198.0464 4.9918c.0114 1.222 1.9133 1.2063 1.902-.0177l-.0464-4.9917 20.9171-.1942c-.0166 1.6643-.0211 3.3284-.0417 4.9926-.0146 1.2222 1.8853 1.2046 1.9-.0176.0185-1.6642.025-3.3284.0456-4.9926l10.4096-.0967c1.01-.0093.9974-1.5773-.0146-1.5679l-10.3795.0963c.0773-7.179.1467-14.358.1921-21.5367l9.9876-.0927c1.01-.0093.9974-1.5773-.0146-1.5679l-9.9576.0924c.0434-7.1787.0468-14.359.0522-21.5374l9.7056-.09c1.01-.0094.9974-1.5774-.0146-1.568l-9.6856.0899c.0034-7.1783-.0192-14.3544-.0618-21.5344l9.5476-.0886c1.01-.0093.9973-1.5793-.0146-1.5699l-9.5436.0886c-.0446-7.178-.0872-14.3558-.1859-21.5332l9.5296-.0885zm-103.15-22.1456l21.5851-.2004c.1587 7.1769.2993 14.3539.3999 21.5313l-21.785.2021-.2-21.533zm22.0047 113.7466l-20.9471.1945-.1999-21.5331 21.343-.1981c-.0493 7.1788-.1187 14.3577-.196 21.5367zm.2075-23.1049l-21.369.1984-.2-21.5351 21.6232-.2007c-.0054 7.1784-.0088 14.3587-.0542 21.5374zm.0576-23.1055l-21.641.2008-.2-21.533 21.7832-.2022c.0406 7.18.0612 14.356.0578 21.5344zm-.0704-23.1043l-21.785.2021-.2-21.533 21.8011-.2024c.0966 7.1774.1373 14.3554.1839 21.5333zm23.238 48.8044l.1882 20.2911-21.719.2016c.0774-7.179.1487-14.358.1961-21.5368l21.323-.1979.0116 1.242zm-.0262-2.8099l-21.293.1976c.0433-7.1787.0427-14.359.05-21.5374l21.0432-.1953.1998 21.5351zm-.2144-23.103l-21.027.1952c.0053-7.1784-.0173-14.3545-.056-21.5344l20.8832-.1939.1998 21.5331zm-.2144-23.103l-20.8831.1938c-.0466-7.1779-.0872-14.3558-.1838-21.5332l20.867-.1937.1999 21.5331zm-.2144-23.101l-20.8791.1938c-.1006-7.1774-.2432-14.3544-.4038-21.5312l21.083-.1957.1999 21.5331zm24.0926 92.1924l-21.331.198-.1999-21.5331 21.331-.198.2 21.533zm-.2144-23.101l-21.331.198-.1999-21.5331 21.331-.198.2 21.533zm-.2144-23.103l-21.331.198-.2-21.5331 21.3312-.198.1998 21.533zm-.2144-23.103l-21.331.198-.2-21.5331 21.3312-.198.1998 21.533zm-.2144-23.101l-21.331.198-.0116-1.242-.1883-20.2911 21.331-.198.1999 21.533zm1.702-21.5508l21.5851-.2003c.1587 7.1768.3013 14.3538.4019 21.5312l-21.787.2022-.2-21.533zm22.0046 113.7467l-20.947.1944-.1999-21.533 21.343-.1981c-.0453 7.1787-.1187 14.3577-.196 21.5367zm.2116-23.105l-21.373.1984-.2-21.535 21.6272-.2008c-.0074 7.1784-.0088 14.3587-.0542 21.5375zm.0556-23.1054l-21.643.2008-.2-21.533 21.7811-.2022c.0407 7.18.0653 14.356.0619 21.5344zm-.0704-23.1044l-21.787.2022-.2-21.533 21.8011-.2024c.0946 7.1774.1413 14.3553.1859 21.5332z"/><path fill="#070506" d="M306.4306 74.414c-1.4065 4.2673-1.8381 8.8355-1.2428 13.2881.0794.5793.458 1.0798 1.094 1.074.53-.005 1.1534-.5088 1.074-1.094-.5739-4.287-.1819-8.6028 1.17-12.7115.4377-1.3281-1.6595-1.8767-2.0952-.5566zM316.3797 75.9958c-.8826 3.6083-1.3301 7.3206-1.3257 11.0367.001 1.394 2.1709 1.376 2.17-.0201-.0048-3.5301.4127-7.0301 1.253-10.46.3314-1.3552-1.7659-1.9118-2.0973-.5566z"/></g><path stroke-linecap="round" stroke-linejoin="round" stroke="#183811" stroke-width="9" d="M237.1403 219.0913l44.8994-64.9195 23.4091 17.0335 25.4403-33.4875 11.2951 11.5987s27.9937-42.8387 44.7475-68.4763" fill="none" display="block"/><g display="block"><path fill="#183811" d="M397.1387 68.4493l-22.1563 10.1782 18.7384 13.1577 3.418-23.336z"/><path d="M397.1387 68.4493l-22.1563 10.1782 18.7384 13.1577 3.418-23.336z" fill="none"/></g><g display="block"><path fill="#2F982B" d="M129.4922 145.7059s-15.9676 8.6993-19.1438 24.627c-3.2363 16.2283-.0804 24.3741 3.6399 33.1375l14.961 28.0858c.4973.9354 1.6285 1.332 2.6015.9115l38.3128-16.5826c.9274-.4024 1.4006-1.4413 1.0838-2.4016-2.4353-7.399-12.4755-37.1055-18.3309-46.901-9.7617-16.3292-23.1243-20.8766-23.1243-20.8766z"/><path fill="#37A12B" d="M128.5795 198.6616c1.9933-2.1152 7.6426-4.979 10.4668-5.656 5.0533-1.2154 11.203-1.314 12.1014 2.1622 1.2515 4.8381-12.6256 11.2554-19.5047 11.1482-5.4042-.086-6.7633-3.7287-3.0635-7.6544z"/><path fill="#F85269" d="M266.7335 199.5452s2.4405-2.5247.4278-5.0205c-3.1939-3.9532-13.6318-.863-17.6412 12.454 0 0-4.3716-1.2593-8.1225-1.0992-4.8965.2125-7.6949 2.9223-7.7991 3.273-.1062.351 2.727 4.307 3.078 4.4133.3507.1042 10.7271-1.3562 10.7271-1.3562l20.6547-10.8198-1.3248-1.8446z"/><path fill="#F69EAA" d="M229.8132 228.5937s-41.0169 30.743-60.9475 27.4881c-15.6362-2.5525-33.152-33.2542-33.152-33.2542l32.0007-14.1408s4.3064 14.5374 8.6132 15.0753c4.3069.538 42.1426-10.9567 42.1426-10.9567s1.3349-4.405 4.5919-5.907c3.3719-1.554 5.4837-7.6526 5.4238-11.3517-.0707-4.0929 1.0055-7.3435 5.4196-5.8134 3.7451 1.2978 4.719 6.1612 3.6229 9.8048-.758 2.5143-3.2913 8.1555-.4336 9.0819 2.86.928 9.4878.4817 14.6976-3.786 7.0015-5.7356 13.2425-9.3969 18.8667-8.336 5.6218 1.0593 6.447 5.9786 5.0301 8.0234-1.4172 2.0429-5.2758 2.6516-9.5427 3.6368-6.2993 1.4513-9.1851 4.444-13.8353 7.9157-2.936 2.1917-4.8364 4.7415-12.0169 8.5334-2.9769 1.5736-10.481 3.9864-10.481 3.9864z"/><path fill="#E6E4DF" d="M170.9454 213.4838c-.657-1.9977-1.8585-5.6208-3.3544-10.0375-10.4014 4.2852-34.7332 14.2988-44.0263 18.0065l5.3807 10.104c.4992.9351 1.6324 1.3313 2.6034.9112l38.3148-16.5829c.9277-.4005 1.3986-1.441 1.0818-2.4013z"/></g><g display="block"><path fill="#070506" d="M180.506 141.5941s12.0981 13.8926 28.8156 8.9998c20.2744-5.935 9.4843-53.6466 4.8209-64.2247-4.6615-10.578-9.7186-20.6173-17.1239-25.0297-7.4053-4.4123-17.7399-9.4289-40.7067-.9321-22.965 8.5008-22.038 20.743-17.3779 29.6789l2.122 3.1528-2.8583 3.7088s-22.6698 25.1328-16.37 39.8385c4.2445 9.9102 18.3824 12.6133 27.2333 8.9241 4.2813-1.7847 7.9507-4.938 9.8877-9.242 5.9479-13.1973 21.5574 5.1256 21.5574 5.1256z"/><path fill="#F69EAA" d="M207.1496 77.7062c3.2698 2.0732 5.1696 5.7415 5.1927 9.6136.0723 11.2419-.1669 37.9997-3.8566 47.3178-3.809 9.6185-16.8998 10.697-21.819 10.7534 0 0-.2539 2.4563-.4767 3.5405-.225 1.086-4.2558 6.3638-17.3273 1.1773-13.0716-5.1845-13.4813-12.5104-13.3821-14.6381.0993-2.1297 1.4926-9.9876.6383-12.4276 0 0-8.0372 3.3196-11.1692-3.4346-3.132-6.7562-2.028-13.2028 2.224-15.72 4.2541-2.517 7.3685-.0612 8.2703 1.5943.9037 1.6576 4.4528 3.6328 5.8015-.1622 1.3486-3.7929 1.7432-22.1523 8.691-28.4105 6.948-6.2602 23.3224-4.4657 29.093-2.8232 2.9633.8442 5.776 2.1314 8.1201 3.6193z"/><path fill="#070506" d="M178.5138 81.3915s1.6036 15.268-21.048 16.4774c0 0-4.934-17.7648 21.048-16.4774z"/><path fill="#EE0F82" d="M138.1978 96.946s40.4955-20.2674 75.9448-10.5788l-2.0823-11.2911s-25.5868-16.3647-73.1263 15.0102c0 0-2.5486 4.6756-.7362 6.8596z"/><path fill="#B80269" d="M214.1447 86.3653s6.5017-7.5403 8.4267-13.9876c2.1969-7.3527.5318-19.572-23.4888-17.7408-21.4355 1.6351-34.8342 28.3306-37.5588 33.7583 14.7206-4.0522 34.3352-7.0267 52.6209-2.03z"/><path fill="#070506" d="M156.121 123.0432s5.7638 2.4912 3.5643 10.691c-2.2015 8.1995-8.2467 10.7725-8.2467 10.7725s-5.2238-12.9293 4.6823-21.4635zM172.6822 145.9238c6.5846 1.5854 13.3806 2.5107 20.1618 2.4199 5.8352-.0764 11.517-1.1197 16.346-4.557 2.3263-1.655-.6725-4.9321-2.976-3.292-4.0835 2.9062-9.3756 3.4505-14.2462 3.4193-6.0258-.0354-12.0352-.7948-17.8916-2.2054-2.762-.6659-4.1718 3.5465-1.394 4.2152zM195.0975 115.193c.0041-.0818-.0154-.0928-.0141.0815a.3088.3088 0 00.011-.0595c.0024-.008.0028-.016.003-.022z"/><path fill="#070506" d="M197.4677 114.93c-.1124-1.107-.291-2.2134-.482-3.3084-.4056-2.3234-.9327-4.6208-1.3483-6.9427-.2704-1.5095-2.5993-.994-2.329.5175.3922 2.1905.8836 4.36 1.2799 6.5507.097.5396.1877 1.0828.2724 1.6278.0855.569.2459 1.1999.2448 1.7785a.21.21 0 00-.008.0377c-.0003.008-.0028.0179-.0032.0259a1.8384 1.8384 0 00-.0119.1155c-.0005-.03.0018-.036.001-.06-.0026.0139-.0033.0258-.0059.0377-.0262.0828-.0487.1718-.0769.2545-.021.059-.0456.1118-.0686.1707-.008-.0004-.106.197-.13.2358-.0306.0485-.0647.0909-.0991.1372-.0085.0096-.0063.0057-.017.0192-.023.0208-.1546.1283-.2049.1719-.1761.1172-.3606.162-.5972.1681-.3048.0087-.724-.0585-.943-.1637-.0566-.0288-.3795-.2574-.301-.1873-.0344-.0318-.3118-.3682-.2074-.2148-.0858-.1244-.1489-.2638-.2122-.3991-.0834-.1725.003.1002-.0683-.1937-.0466-.1886-.0753-.3743-.1057-.564-.001-.0221-.0036-.0483-.0047-.0664.0234-1.5368-2.2438-1.651-2.381-.12-.0027.0139-.0059.0378-.0088.0556-.0445.168-.0868.332-.1432.4975-.0895.2658-.321.6066-.578.6998-.5242.1898-1.2522.053-1.6444-.2712-.3423-.2815-.409-.7855-.3343-1.3545.0843-.6386-.5232-1.2199-1.1304-1.2505-.6872-.0346-1.1682.4898-1.2505 1.1305-.3546 2.7036 2.0094 4.551 4.5876 4.1362.5956-.0962 1.1037-.363 1.5269-.7341.9972 1.1937 2.791 1.6806 4.2624 1.212 1.221-.389 2.0864-1.4267 2.4026-2.6544.0973-.3795.156-.711.1173-1.0954zm-7.822-.278c-.0158.0773-.0277.1147 0 0zm2.403.1211c.021.1412.0095.0906 0 0zM193.9995 126.9267c.031-.495-.5176-1.1335-1.0184-1.1707-2.2707-.1626-4.539-.5332-6.7668-.988-4.238-.8643-8.4914-2.134-12.1597-4.4857-.4927-.3152-1.157-.0883-1.5342.2832-.3772.3735-.7544.745-1.1316 1.1164-.217.1353-.387.329-.4549.602-.1013.2631-.0646.5273.0334.7686.4946 2.9806 1.6723 6.154 3.7286 8.3863 1.4715 1.596 3.3496 2.8742 5.3658 3.6747 3.0882 1.227 6.2515 1.4005 9.225-.264 2.889-1.6166 4.5078-4.691 4.7128-7.9228z"/><path fill="#FEFEFF" d="M174.0531 120.3524c-.493-.3092-1.1588-.0925-1.5333.2651-.263.2531-.5261.5062-.7891.7573 2.7216 7.5866 13.8698 9.4921 16.4579 8.403 2.7866-1.1732 3.072-2.5466 3.1448-4.189-1.7141-.1985-3.4269-.465-5.1118-.8083-4.2378-.8644-8.492-2.1222-12.1685-4.4281z"/><path fill="#F92140" d="M181.4579 135.5824c.225.0654.4524.123.678.1743.1426.0333.285.0665.4279.0937.2261.0434.4547.077.6814.1084.1234.0143.2464.0385.37.0507-1.001-5.7296-6.8364-7.1592-10.8941-7.4658.5394 1.0585 1.1926 2.0446 1.9749 2.893 1.4695 1.596 3.3495 2.8763 5.3657 3.6768.3436.1355.688.255 1.033.3645.1203.036.2427.0703.3632.1044z"/><path fill="#FEFEFF" d="M172.1613 100.8304c.378.6458 1.0075 1.1081 1.6854 1.4066.686.295 1.422.4321 2.157.5493 2.7567.4533 5.6482.617 8.2875-.2973.6073-.2076 1.212-.4836 1.625-.9734.6882-.8184.6557-2.0816.0988-2.9908-.5529-.911-1.5286-1.4969-2.555-1.7929-1.0228-.2878-3.633-.4714-5.4323-.41-1.0372.078-2.0892.011-3.1254.187-1.0264.1805-2.0708.6406-2.649 1.5045-.5502.8234-.5874 1.959-.092 2.817zM197.613 101.9149c.3461.6022.9047 1.0428 1.4987 1.3351.5982.2885 1.5895.6849 2.2279.8132 2.388.4968 5.0335.6141 6.539.1052.5174-.1741 1.247-.7822 1.5853-1.2177.5633-.7266.4874-1.8839-.0225-2.7326-.51-.8487-1.3686-1.4127-2.2627-1.712-.8903-.2932-3.1408-.5388-4.685-.5366-.8891.0413-1.7956-.0504-2.6793.0793-.8759.134-1.7584.5201-2.224 1.2937-.4436.7366-.4358 1.7743.0226 2.5724z"/><path fill="#070506" d="M177.9946 102.7004c-3.215 1.1716-5.04-3.8226-1.8188-4.996 3.215-1.1696 5.04 3.8226 1.8188 4.996zM202.5628 103.9106c-3.011 1.0958-4.7197-3.5802-1.7047-4.6778 3.0131-1.0977 4.722 3.5782 1.7047 4.6778zM149.5968 111.5182c.1734.0548.3379.1291.509.1918-.2675-.0976-.0177-.0069.0427.0262.0779.044.1559.086.2316.1338.1396.0892.2708.1879.402.2866.2084.1567-.0163-.0328.0405.0321.0513.0547.111.1017.1624.1544.1278.1266.2492.2608.3624.3987.0565.071.1109.1438.1654.2146.1822.2395-.1236-.2105.0296.0476.1811.3015.34.6039.478.9272.0536.1289.0524.1528.0057.0063.0276.0875.0573.1731.081.2604a5.995 5.995 0 01.1275.529c.0175.089.031.1779.0426.2666.0123.0747.0302.356.012.0406.0096.1667.0155.3292.0111.4952a4.4888 4.4888 0 01-.0348.4909c-.0172.1433-.0398.2343.002.0401-.0204.0871-.0368.1744-.0612.2613a4.3115 4.3115 0 01-.1659.5103c-.0276.0707-.061.139-.0886.2078-.036.0803-.0248.0548.0358-.0743-.0288.0546-.0575.1072-.0861.1599-.3058.5433-.234 1.3058.3433 1.6513.525.3109 1.3258.235 1.6514-.3453 1.8702-3.334.1476-8.0127-3.5505-9.1783-.5932-.1881-1.3305.1352-1.5082.761-.1711.6142.1225 1.3038.7593 1.5042zM175.3954 91.8117c.094-.0393.188-.0766.284-.1138.2227-.0869.188-.0746-.1018.035.108-.0787.3056-.1028.4376-.1402a10.188 10.188 0 011.038-.2521c.2002-.038.402-.0699.6036-.0957a7.312 7.312 0 01.3042-.0368c-.0925.0074-.1868.0126-.2793.02.3256-.1038.8089-.0373 1.1468-.0283.356.01.713.04 1.065.0857.1554.0178.392.0117.5308.0788-.3253-.0624-.365-.0685-.1251-.0203.0753.0158.1484.0355.2236.0533.3462.0835.6875.1848 1.024.302.1693.0585.3363.123.5012.1894.1137.0478.7496.3442.1867.0695.5492.268 1.043.443 1.6648.3042.5124-.1144 1.0773-.4764 1.3507-.9332.5405-.91.4614-2.48-.6311-3.0136-1.755-.8594-3.6038-1.4072-5.5715-1.4623-1.9616-.0568-3.8538.3364-5.6583 1.0946-1.0516.4436-1.4831 1.9718-.9288 2.933.628 1.091 1.8096 1.4048 2.9349.9308zM200.1888 92.9251c.0522-.0434.2087-.1276.2337-.1864-.0387.0921-.3513.2145-.0818.072.1996-.1062.4006-.2002.6018-.2982.2545-.1233-.3797.103-.104.0389.0991-.021.195-.0563.2924-.0814.2008-.05.401-.09.6028-.1198.0686-.0106.4163-.0351.093-.0194-.357.014.1003-.003.1745-.0032a7.2252 7.2252 0 01.6242.0114c.1817.0092.3671.0265.5503.0478.0915.0106.183.0232.2745.0359.0815.012.4985.0812.1293.0165-.3434-.0594-.016.0012.0552.0188.091.0206.1821.0412.273.0658a8.552 8.552 0 01.5347.1591c.1752.059.3462.1236.5168.1943.3138.132.0827.0682-.0738-.0458.0695.0516.162.0863.2399.1283.1558.0879.3092.1817.4563.2833.0715.0516.1429.1053.2164.157.257.1852-.1099-.0455-.1187-.108.0131.0967.3297.331.409.425.0493.0566.2209.3076.0426.0303-.2024-.3146.0349.0638.059.103.5836.9747 1.8707 1.5422 2.9348.931.9694-.56 1.5572-1.892.929-2.937-1.2452-2.0733-3.3504-3.2147-5.6817-3.6466-2.4977-.4663-5.0881-.1643-7.1023 1.4964-.8818.7285-.9551 2.2628-.155 3.0761.8592.8724 2.1338.9306 3.074.155zM195.181 124.6212c-3.454 1.2638-7.4822.5701-10.931-.3746-3.3125-.908-6.5371-2.248-9.4643-4.0476.542-.6615.9762-1.4086 1.2084-2.242.1664-.5984-.1174-1.3256-.757-1.508-.5984-.1663-1.3296.1172-1.5081.759a5.4236 5.4236 0 01-.1614.5006 6.0912 6.0912 0 01-.1023.2411.88.88 0 01-.0333.0644c-.0897.1517-.1755.3036-.275.4488-.056.0812-.116.1583-.1721.2376-.0129.0174-.0278.0346-.0407.052-.2189.2513-.4725.4748-.739.6777-.0354.0262-.0915.0675-.108.0766-.0827.052-.1655.1038-.2519.1495a3.9669 3.9669 0 01-.4942.2315c-.0368.0141-.228.0746-.3943.1143a5.0527 5.0527 0 01-.578.105c-.0282.0026-.0263.0047-.0364.0062-.012-.0006-.01-.0005-.036.0002a4.4546 4.4546 0 01-.3266.0035 4.801 4.801 0 01-.5866-.0436c-.545-.0715-1.3113-.3644-1.6962-.7923-.4304-.4803-1.2076-.5155-1.6839-.0849-.4825.4343-.5172 1.2035-.0849 1.6839 1.4883 1.661 4.1797 1.9789 6.193 1.2493.2651-.0948.503-.247.752-.3787.0739.0839.1416.1714.2502.241 3.3825 2.141 7.1936 3.7248 11.0713 4.7032 3.9649.9968 8.1741 1.4753 12.085.0463 1.4363-.5263.3273-2.6408-1.0987-2.12z"/></g></g></svg>