<svg xmlns="http://www.w3.org/2000/svg" width="470" height="626" style="width:100%;height:100%"><defs><clipPath id="a"><path d="M0 0h470v626H0z"/></clipPath></defs><g clip-path="url(#a)"><g display="block"><path fill="#0E273A" d="M219.3322 418.8461c-17.0566-3.7514-37.1644.2392-37.1644.2392l1.0593 13.0433 18.801 17.6783s34.3607-27.2093 17.304-30.9608z"/><path d="M219.3322 418.8461c-17.0566-3.7514-37.1644.2392-37.1644.2392l1.0593 13.0433 18.801 17.6783s34.3607-27.2093 17.304-30.9608z" fill="none"/></g><path fill="#EAE8E4" d="M292.0792 572.5954c0 15.2149-41.3729 27.5476-92.4057 27.5476-51.033 0-92.4023-12.3327-92.4023-27.5476 0-15.2132 41.3694-27.5476 92.4023-27.5476 51.0328 0 92.4057 12.3344 92.4057 27.5476z" display="block"/><g class="GirlDollar" display="block"><path fill="#F69EAA" d="M185.054 503.472l-1.482 52.004s-2.518 8.41-2.84 12.582c-.216 2.804.028 6.122.21 7.992.092.95.71 1.76 1.606 2.094 1.5.56 4.096 1.324 7.444 1.522 5.594.328 8.558-.658 8.558-.658s11.232 5.628 19.254 6.912c8.022 1.282 13.33 1.482 14.588-2.46 1.696-5.306-23.31-29.63-23.31-29.63s3.608-15.026 4.936-19.75c1.482-5.266 7.786-26.664 7.786-26.664l-36.75-3.944z"/><path fill="#070506" d="M221.804 507.414l-1.908 6.89-35.216 2.536.282-16.34 36.842 6.914z"/><path fill="#0D2639" d="M209.328 552.802c.582-2.406 2.076-8.574 3.31-13.454-10.438 3.276-21.752.824-28.566-1.376l-.498 17.502s-2.52 8.412-2.842 12.584c-.232 3.014.066 6.614.248 8.38.072.7.522 1.294 1.176 1.554 1.412.562 4.174 1.458 7.836 1.674 5.594.328 8.556-.658 8.556-.658s11.234 5.628 19.254 6.912c8.022 1.282 13.33 1.48 14.59-2.462 1.52-4.758-18.418-24.796-22.564-28.896a1.8522 1.8522 0 01-.5-1.76z"/><path fill="#070506" d="M189.498 574.604c2.71 2.01 5.722 3.576 8.91 4.682.56.196 1.2-.222 1.35-.766.166-.606-.206-1.158-.768-1.354-3.008-1.044-5.828-2.564-8.386-4.458-.476-.354-1.226-.08-1.502.392-.328.56-.082 1.148.396 1.504zM218.88 513.516a475.1672 475.1672 0 00-12.02 39.144c-.356 1.37 1.762 1.954 2.118.584a475.2119 475.2119 0 0112.02-39.146c.474-1.334-1.648-1.906-2.118-.582z"/></g><g class="GirlDollar" display="block"><path fill="#F69EAA" d="M154.281 439.0054l-51.0165 8.0965s-6.0979-4.1482-10.8334-4.483c-2.8868-.2-6.2055-.105-7.9778-.0267-.8117.036-1.5327.5066-1.8815 1.2387-.897 1.8884-1.8617 5.0917-1.3945 8.9693.6738 5.564 2.2794 9.8445 2.2794 9.8445s-2.727 11.202-2.5627 19.3236c.167 8.1229 2.8703 14.2826 6.9733 14.8197 5.5238.7226 18.882-25.4112 18.882-25.4112s10.21-1.1072 26.624 2.0393c5.3737 1.0289 25.1972 3.2523 25.1972 3.2523l-4.2894-37.663z"/><path fill="#0D2639" d="M118.9187 444.6168l-15.7635 1.8825s-5.9892-3.5476-10.7241-3.8803c-2.8873-.202-6.2105-.1078-7.9822-.0275-.82.0364-1.5381.5229-1.8884 1.2639-.8951 1.8877-1.8501 5.0818-1.3838 8.9429.6745 5.5659 2.2814 9.8439 2.2814 9.8439s-2.7265 11.2039-2.5621 19.3255c.1663 8.121 2.8689 14.2851 6.9713 14.8203 4.7623.6237 15.411-18.7632 18.2648-24.1331.4348-.8195 1.3248-1.0557 2.2392-1.2198 2.6443-.4806 7.799.0382 15.5944.5235-3.8283-8.4242-4.7825-19.7349-5.047-27.3418z"/><path fill="#070506" d="M85.1759 451.9332c-.5603 1.5159-1.064 3.052-1.43 4.627-.366 1.575-.6124 3.1778-.8675 4.773-.0946.5862.2143 1.1773.8211 1.3179.5464.128 1.2246-.231 1.3186-.8192.2545-1.597.5009-3.1999.8669-4.7749.366-1.575.8716-3.1117 1.4305-4.625.2054-.56-.2941-1.1987-.8217-1.32-.6383-.1475-1.112.2631-1.318.8212z"/></g><path fill="#0D2639" d="M213.3973 481.78a198.2953 198.2953 0 01-65.4388 6.3699s-1.6644.9327-4.612-3.07c-2.948-4.0046-13.1676-18.9213-14.3453-39.7194 0 0-.6897-1.252 4.001-3.5542 2.815-1.3816 25.5196-12.2275 43.224-20.6752 11.837-5.6464 26.0073-.7134 31.7854 11.0617l14.485 29.5122c3.9574 8.0638-.427 17.736-9.0993 20.075z" display="block"/><g class="GirlDollar" display="block"><path fill="#0D2639" d="M178.3234 481.1866l-.5673 29.6306a2.3065 2.3065 0 001.3889 2.163c3.1384 1.3623 11.3097 4.5073 22.7937 5.9774 11.2006 1.4367 18.7896-.3204 21.8645-1.2777.9579-.2997 1.714-1.0273 2.062-1.9689 2.9014-7.8779 17.1123-46.551 24.496-68.1935 8.2523-24.1805 20.1858-54.1315 23.1417-72.9004 2.9537-18.7649 1.181-44.7596 1.181-44.7596l-140.8108-1.7218-5.7025 41.6545s5.0798 11.4493 10.843 26.6964c5.7631 15.2491 9.875 24.3815 9.875 24.3815l29.4348 60.3185z"/><path fill="#070506" d="M273.9878 347.7234l-47.1734 11.009-5.5398-25.9728 51.6684-8.8285 1.0448 23.7923z"/><path fill="#2F7392" d="M148.482 422.3606c3.4048 8.8708 7.5356 17.4375 12.4083 25.5962.9517 1.5945 3.483.1887 2.5256-1.4159-4.741-7.9382-8.8183-16.2618-12.1317-24.8948-.6573-1.7129-3.471-1.0246-2.8022.7145z"/><path fill="#070506" d="M218.7623 409.1235c.2644-.749 18.2354-16.614 18.2354-16.614l-17.2014 3.8755-1.034 12.7385z"/><path fill="#2F7392" d="M220.211 397.6051c2.9063-.9265 5.8283-1.8387 8.8076-2.5038 2.937-.656 5.915-1.045 8.9106-1.3037.7794-.067 1.4593-.5782 1.4754-1.418.0137-.7179-.6366-1.5425-1.42-1.4755-3.1659.2755-6.3218.6572-9.4293 1.3358-3.0674.6714-6.07 1.608-9.0587 2.559-1.763.5624-1.0647 3.3743.7145 2.8062z"/></g><g class="GirlDollar" display="block"><path fill="#F24200" d="M250.4372 191.758s10.0848 2.781 21.3828 11.7497c12.4581 9.8911 20.595 21.0651 19.6477 21.0599l24.9454 35.2249 2.5247 23.5274-38.2952 27.1156-24.5713-86.7951-5.6341-31.8823z"/><path fill="#F24200" d="M117.9688 201.9167s18.5049-18.5907 78.5784-19.15c61.1216-.5701 56.2717 12.7278 56.2717 12.7278s10.8352 19.1179 20.647 46.6302c8.5714 24.031 13.4908 82.8882 14.5676 97.8736 1.0743 14.9817.7566 32.1115-8.474 33.8477-9.233 1.7325-10.4043-4.598-11.0999-11.5152l-3.0495-30.327s-16.6529 8.1228-35.835 9.7824c0 0-1.732 26.2148-4.0778 34.27-2.95 10.142-9.392 14.7637-12.5944 16.4988a8.3789 8.3789 0 01-3.3693.996c-6.078.4645-29.4691 1.5865-47.7984-.7453-16.5172-2.102-34.3719-9.1691-41.4853-12.2046-2.1233-.9061-3.6523-2.7986-4.0991-5.0633-.9002-4.5548-1.9211-13.208-.2933-25.1448 1.2543-9.1957 6.8329-24.382 7.4364-31.3735 2.2331-25.8873-10.7008-112.0536-5.325-117.1028z"/><path fill="#F9B80B" d="M238.801 199.7966c.3518 4.8974.4675 9.8065.35 14.7149-.0198.7819.875 1.3653 1.5815 1.2942.8596-.0864 1.2763-.7997 1.294-1.5834a152.646 152.646 0 00-.35-14.7148c-.1305-1.8583-3.0098-1.5667-2.8755.2891z"/><path fill="#F9B80B" d="M241.6472 215.9871c3.199-.0101 6.784 1.4787 8.8252 3.987 2.3602 2.9025 2.7044 7.7242 3.0383 11.3048.7201 7.781 1.0247 15.6279 1.4935 23.4281.1105 1.8583 2.9878 1.567 2.8755-.2891-.2736-4.5595-.5648-9.1153-.8503-13.6736-.2937-4.66-.3773-9.3893-1.1964-13.9965-.6703-3.7477-1.6358-7.5924-4.6536-10.1373-2.7189-2.2914-6.285-3.5128-9.8215-3.5009-1.8608.0062-1.5595 2.8825.2893 2.8775z"/><path fill="#B2E1DF" d="M218.4706 194.6147l-50.105-10.0694c-.9843.125-1.9564.253-2.9058.3866 4.7887 5.0643 23.6154 25.5957 35.7158 47.5814 13.9546 25.353 17.2164 31.6442 22.8481 55.1065 4.0374 16.8225 5.2178 41.6148 5.5613 54.1654 19.1782-1.6592 35.823-9.7813 35.823-9.7813s-4.8317-48.53-10.6956-68.7649c-12.3243-42.5223-36.2418-68.6243-36.2418-68.6243z"/><path fill="#F9B80B" d="M151.0442 194.255c-.697 9.3004-.552 18.8579 7.3123 25.2029 3.6423 2.9383 7.9967 4.6834 12.2694 6.4749 5.1016 2.1383 10.2206 4.2306 15.3088 6.3964 1.7137.7302 2.9186-1.8995 1.203-2.6295-4.5253-1.925-9.0731-3.7933-13.6093-5.687-4.0263-1.6795-8.2576-3.1998-11.8696-5.697-3.5771-2.4704-6.2144-5.749-7.2977-10.006-1.1223-4.4038-.8013-9.0874-.4658-13.5675.1383-1.843-2.712-2.3424-2.851-.4872z"/><path fill="#F9B80B" d="M185.1635 230.4771c-.179 4.1367-.334 8.3714.9185 12.3722 1.2733 4.067 4.171 6.9174 7.5151 9.3892 7.6888 5.6792 14.998 11.662 21.716 18.48 1.307 1.3239 3.1252-.9233 1.8311-2.2384-6.028-6.1156-12.517-11.7567-19.4455-16.831-3.1722-2.3222-6.6804-4.5464-8.3316-8.2739-1.7062-3.8546-1.5314-8.2923-1.3507-12.4131.0786-1.837-2.7721-2.3404-2.8529-.485z"/><path fill="#070506" d="M257.8856 215.1563c4.5943 5.2305 7.4512 11.5524 10.063 17.9371 2.8432 6.9444 5.0808 14.1246 6.8961 21.4035 3.7 14.8463 5.6185 30.0667 7.5385 45.2227.1788 1.399 2.3624 1.1855 2.185-.2197-1.9462-15.3564-3.9227-30.7539-7.6765-45.7958-1.8902-7.583-4.2416-15.0552-7.2528-22.2721-2.607-6.2566-5.4652-12.4316-9.9757-17.568-.9262-1.0547-2.711.2263-1.7776 1.2923z"/></g><g class="GirlDollar" display="block"><path fill="#F69EAA" d="M302.4726 166.6926s-10.985-4.5052-9.4375-16.1337c1.5473-11.6305 13.9518-6.3494 15.6572-3.485 1.7074 2.864 4.6087 18.1465.3685 20.8524-4.2443 2.7044-6.5882-1.2337-6.5882-1.2337z"/><path fill="#FF9700" d="M337.0487 151.0218c-1.0485-10.6962 6.0027-29.8406 8.316-33.5945 2.3112-3.7556 4.5438-5.4316 3.8781-9.4223-1.4023-8.444-18.015-5.0088-24.4013-2.1887-6.5154 2.88-10.7393 7.828-10.7393 7.828s-11.1547-5.9757-21.2575-3.4275c-10.105 2.5465-15.82 10.2749-14.124 12.8781 1.4843 2.2768 6.606 6.6043 9.3864 8.8684 5.91 4.8117 14.0129 16.8296 14.9029 20.7333 11.9679 52.4277 37.7161 35.856 34.0387-1.6748z"/><path fill="#070506" d="M316.7226 114.806s7.6334-7.973 18.0632-9.2599c5.8304-.718 8.4715.2693 8.5246 2.8718.0522 2.3888-6.3332 7.9618-15.7126 8.4377-9.3797.4739-10.8752-2.0497-10.8752-2.0497z"/><path fill="#070506" d="M341.682 107.293c1.0842 2.6158-1.9926 5.3714-4.0742 6.3912-2.2615 1.1067-4.7748 1.7128-7.2506 2.0898-2.719.414-5.518.5362-8.2435.1156-3.1191-.4802-5.9047-1.8918-8.7247-3.2301-.7187-.3423-1.1872.7992-.4707 1.1398 3.1935 1.5176 6.343 3.0372 9.904 3.427 3.2927.3617 6.6752.0774 9.902-.6398 2.5333-.5624 5.3226-1.3352 7.3643-3.0196 1.8967-1.5638 3.7755-4.2231 2.7264-6.7589-.3034-.7318-1.4389-.2504-1.133.485z"/><path fill="#FF9700" d="M305.004 158.5453c-2.7736 8.9048-.7596 17.7057-13.5098 35.2836-12.4699 17.1906-44.9426 57.864-35.7974 91.4743 9.1474 33.6121 26.2481 58.3963 94.4219 52.2967 68.1754-6.1019 75.8138-62.5858 68.2426-88.494-13.165-45.035-64.7674-63.415-74.5837-82.454-10.52-20.3988-24.8045-52.9593-38.7735-8.1066z"/><path fill="#070506" d="M346.6353 249.1791c-1.486-12.6975-3.8387-25.2954-7.0612-37.7004 5.1237.3934 9.695 2.6622 13.953 6.3381 2.9775 2.5703 6.6575-2.2958 3.6936-4.8558-4.9096-4.2373-10.6706-7.4182-17.277-7.7008-.6862-.0298-1.372-.0112-2.0577.0073a282.9971 282.9971 0 00-1.8221-6.1425c-1.1567-3.7423-6.7624-1.3271-5.6121 2.3979.4606 1.4875.8982 2.9842 1.3316 4.4794-4.421.9745-8.6673 2.8335-12.4042 5.3216-10.9274 7.2764-12.4031 22.5363-3.111 31.7222 6.8838 6.8067 15.8474 8.7953 24.811 10.903a270.8266 270.8266 0 011.3595 30.2345c-2.2793.1-4.5525.0073-6.7448-.3062-5.3206-.7582-12.048-2.1102-16.0358-6.0105-2.8049-2.7412-6.468 2.1449-3.6933 4.8578 3.6686 3.5865 9.343 5.1503 14.1923 6.3015 4.0501.9592 8.0726 1.359 12.1454 1.1927-.0809 2.4634-.1864 4.924-.3363 7.3846-.2385 3.9017 5.8074 4.739 6.0452.8171.1815-2.9554.2963-5.9118.3828-8.8684 5.6258-.9465 11.2923-2.7362 15.5736-6.6244 4.4824-4.071 7.623-10.099 6.583-16.2933-1.8628-11.1184-13.9368-15.0376-23.9155-17.4554zm-30.1686-23.8997c1.8248-7.5103 9.3564-11.6607 16.401-13.2906.1878-.0437.3661-.0538.5525-.0933 3.1253 11.7643 5.447 23.7346 6.9512 35.808-10.9735-2.6983-27.332-8.3198-23.9047-22.424zm38.28 56.2903c-1.9794.806-4.0863 1.4174-6.2423 1.8599.0654-9.332-.3317-18.6514-1.2048-27.9243 2.061.5655 4.0958 1.1911 6.0725 1.9538 4.7181 1.819 10.6774 5.0032 11.2243 10.659.5957 6.1337-4.5733 11.3011-9.8497 13.4516zM287.9684 302.0605c-.044 2.4523 1.3505 4.826 3.6668 5.7706 2.342.9552 5.0749.2123 6.7356-1.6464.3982-.4416.2367-1.1988-.209-1.5378-.5043-.3836-1.1423-.2363-1.5379.209-.1453.1631.0215-.005-.1256.1301a4.5117 4.5117 0 01-.2618.2274 5.5686 5.5686 0 01-.2788.2054c-.0259.0177-.2928.177-.1483.0969-.1837.1037-.3775.1926-.573.2696-.2373.0949-.336.1264-.4342.1459-.8708.187-1.5767.176-2.3245-.128-.7159-.2923-1.2425-.7515-1.7097-1.4409-.0257-.0409-.1365-.2176-.0632-.0943a6.0426 6.0426 0 01-.1578-.2995c-.0988-.2066-.178-.4178-.2534-.6316-.1074-.3144.0194.173-.0391-.1541-.021-.1102-.046-.2199-.0614-.3328a3.3822 3.3822 0 01-.0324-.2822c-.0034-.04-.0122-.402-.013-.2142.0086-.5906-.3075-1.149-.9428-1.2343-.5366-.0723-1.2248.3442-1.2365.9412zM312.9137 313.7283c-.7376 1.1075-2.2872 1.1264-3.376.5115-1.4147-.8007-2.2496-2.3988-2.996-3.7768-.354-.6583-1.401-.9964-1.8825-.2325-2.1349 3.3743-6.8136 3.3443-8.9283-.0215-.7502-1.1978-2.4803.1657-1.7334 1.3539 2.5325 4.0336 8.172 4.4355 11.3727 1.2695.925 1.5334 2.067 2.9848 3.7641 3.636 1.9142.7329 4.3313.384 5.5266-1.4093.7812-1.172-.9628-2.5092-1.7472-1.3308zM386.3907 221.5577c.0954.0193.1912.0406.2872.0639-.1547-.0395-.029-.0061.0533.021.1674.058.3352.12.4965.1929.0903.0402.1785.0807.2653.1254.0217.0112.2491.1397.1328.0707-.1184-.0686.1061.0684.1281.0815.08.0537.1602.1094.2385.1654.132.095.2589.197.3823.3033.0734.0647.1468.1294.2165.1966-.1136-.1077-.014-.0142.0404.045.246.2652.4695.5437.668.8457.0454.0665.0893.1372.1332.208-.1222-.2014.0369.0777.0455.0967.078.1428.1465.2909.2114.4415.071.166.1301.3335.1895.503.0328.0925.0634.1994.0198.0418.0248.0935.048.1893.0668.2836.0737.3492.116.7048.122 1.0612-.0036-.161.0007-.0546-.0059.0452a8.3241 8.3241 0 01-.0175.2426 5.4965 5.4965 0 01-.0907.5795c-.1188.5813.3839 1.1609.9411 1.2365.6249.0826 1.1158-.3596 1.2363-.9432.7486-3.6238-1.8996-7.3652-5.467-8.0852-.5811-.1168-1.1612.382-1.2363.9432-.0831.6208.3596 1.1157.9429 1.2342zM405.6648 263.9315c-.5198-1.314-2.542-.4517-2.02.864.6285 1.5797.5738 3.3896-.0939 4.9961-.3105.7447-.7919 1.4944-1.3207 2.0285-.3122.317-.6687.6197-1.0663.8272-.3886.2001-.7911.3275-1.1422.2097-.5627-.1899-1.1983.0196-1.4372.593-.2007.4835.0102 1.129.4953 1.3718-.0134.228.0373.4673.2241.6982 1.1653 1.43 1.5355 3.4405.834 5.1688-.6694 1.639-2.2271 2.8298-3.9273 3.1074-1.394.2278-1.102 2.4043.2959 2.176 2.4822-.4041 4.7027-2.0947 5.6573-4.4407.8831-2.1748.6005-4.7138-.6438-6.6801 1.7274-.582 3.158-2.2924 3.9058-3.8735 1.0382-2.1919 1.1345-4.7945.239-7.0464z"/><path fill="#BB1601" d="M304.9453 168.936c13.5886 3.3156 25.192.9226 36.7231-6.5893 2.62-1.7065 2.0474-9.2582.0306-11.7855-2.357-2.9514-5.572-3.0976-8.2722-1.0896-.5696.4125-.5978.4426-.0849.0883-.3046.209-.614.4124-.9242.61-.4684.2958-.9405.58-1.42.8531a33.9118 33.9118 0 01-3.4352 1.7084c-.6715.287-1.352.537-2.0334.7951-1.324.505.6718-.1357-.5769.1814-1.3231.3333-2.6321.6667-3.9794.8821a34.443 34.443 0 01-3.7815.393 27.201 27.201 0 01-.8151.0321c.6638-.0014.6432-.0047-.0642-.0114-.6359-.0306-1.2722-.049-1.9065-.098a34.4936 34.4936 0 01-3.8023-.5166 33.9897 33.9897 0 01-1.8837-.42c-.3572-.0887-.7138-.1876-1.0707-.2884.5988.1729.5639.1534-.107-.0601-2.968-.9872-5.3718-.0508-6.3829 3.5582-.873 3.11-.575 10.3196 2.6005 11.3774l1.186.3797z"/><path fill="#F988A0" d="M297.9603 143.8805c2.4305-.9924 8.4622-.1998 10.3034 3.6634 1.8435 3.8649-.2303 6.7829-4.1307 7.1476-3.9024.365-7.1168.461-8.5564-3.6102-1.326-3.7415.9363-6.6084 2.3837-7.2008z"/><path fill="#070506" d="M298.2423 154.907c1.6564.8264 3.8391.8769 5.6398.745 2.1765-.1586 4.5885-.9003 5.8404-2.8265 1.2508-1.92 1.0912-4.504-.0287-6.4469-1.217-2.1072-3.1968-3.3377-5.5001-3.949-2.2825-.606-4.793-.7815-7.1287-.4135-1.4305.2268-1.1328 2.461.3036 2.2335 1.7015-.2676 3.4546-.185 5.1477.1095 1.6767.2928 3.3236.8258 4.4768 2.1082 1.1154 1.241 1.767 3.08 1.0979 4.6605-.6588 1.553-2.4796 2.071-4.0102 2.2447-.98.111-1.963.0954-2.9423-.0258-.8071-.1022-1.3595-.1866-2.0307-.5212-1.3013-.6486-2.158 1.4378-.8655 2.0816zM303.645 169.4074c9.6477 2.2993 20.243 1.7106 29.5986-1.5677 1.0924-.3826.383-2.0381-.7095-1.6555-9.0628 3.1759-19.3126 3.6631-28.6493 1.4386-1.1265-.2687-1.3558 1.5185-.2398 1.7846z"/><path fill="#F69EAA" d="M341.8364 147.4301s1.9576-5.0053-.7838-8.1709c-2.7544-3.186-10.607.34-13.5714 2.4224-2.9606 2.0818-8.1892 6.2461-6.0946 10.4886 1.426 2.8882 5.268 1.8855 5.268 1.8855s-3.0415 1.011-3.923 3.672c-1.3648 4.1255 2.1503 5.7063 4.815 5.5762 3.0776-.152 5.3817-1.6581 5.3817-1.6581s-3.6918 2.8937-2.7772 5.583c1.0153 2.9844 6.5698 3.5029 8.9718 1.4405 0 0-3.8851 1.9168-1.0099 6.037 2.1212 3.042 12.134-.376 12.4625-4.2395.3288-3.8615-3.3267-4.7532-3.3267-4.7532s2.4593-2.5323 1.037-5.8086c-1.4184-3.2768-3.3328-3.0165-3.3328-3.0165s2.8336-2.4662 1.4395-6.4406c-1.3944-3.9764-4.556-3.0178-4.556-3.0178z"/><path fill="#070506" d="M324.5212 155.912c4.2229-4.1991 9.766-6.7774 15.7052-7.2598 1.4453-.1178 1.1377-2.3507-.3037-2.2335-6.2844.5113-12.3195 3.2715-16.7912 7.7184-1.0172 1.0102.3603 2.799 1.3897 1.775zM331.3033 163.649c3.2584-2.742 7.163-4.605 11.356-5.3709 1.4242-.2582 1.1288-2.4907-.303-2.2294-4.5754.834-8.8818 2.8302-12.4427 5.8253-1.1086.9318.276 2.7135 1.3897 1.775zM337.6767 171.2153c2.3519-1.66 4.9258-2.9626 7.6448-3.9115.5761-.2015.8199-.947.5918-1.4812-.252-.5915-.9011-.7939-1.4792-.5922-2.8981 1.0117-5.6385 2.4419-8.1471 4.21-.4974.3501-.554 1.1208-.1926 1.5823.3909.5 1.0833.545 1.5823.1926z"/></g><g class="GirlDollar" display="block"><path fill="#F69EAA" d="M227.5775 315.665c-5.9308-2.1896-10.5783-4.2108-10.5783-4.2108s2.5601 2.812.4087 5.3037c-2.1515 2.4918-8.2568 1.6263-8.2568 1.6263s1.5653 1.8728-.0842 5.299c-1.6507 3.4143-8.501 1.9765-8.501 1.9765s-1.3922 3.8647-6.3385 3.6505c-4.946-.2122-19.4146-6.868-20.2754-13.6097l-31.2052-3.2442c8.6119-9.0892 10.7872-22.5384 19.558-32.3853l19.203 7.3034s8.0138-4.1024 17.3155-.6538c0 0 6.519 1.1616 11.0873-6.8597 3.8376-6.7337 10.2583.0278 7.8959 6.579-2.355 6.5445-8.1143 8.4201-8.1143 8.4201s16.1908 10.3098 21.5305 13.0574c5.3382 2.7336 2.2785 9.946-3.6452 7.7476z"/><path fill="#070506" d="M205.3763 306.3113a213.3107 213.3107 0 0010.633 5.2143c1.323.6027 2.2586-1.4472.9376-2.05a213.3108 213.3108 0 01-10.633-5.2144c-1.2882-.6765-2.2172 1.3787-.9376 2.05zM200.52 315.648a79.1967 79.1967 0 017.6138 3.4737c.524.273 1.2715-.0093 1.492-.554.2401-.591.0056-1.2047-.5544-1.4961a79.1966 79.1966 0 00-7.6137-3.4737c-.5484-.2162-1.2552-.0285-1.4919.556-.219.5407-.0317 1.2636.5543 1.4941zM196.0875 324.92c1.2385.5227 2.4812 1.047 3.7217 1.5695.5416.229 1.2601.018 1.4919-.556.2257-.5534.0232-1.2486-.5583-1.4937-1.2387-.5247-2.4792-1.0472-3.718-1.5719-.5433-.2267-1.258-.0182-1.4916.558-.224.5513-.0251 1.2489.5543 1.4941z"/><path fill="#F24200" d="M115.9565 205.6126c-1.038.8521-30.3004 22.4643-25.349 58.8113 4.7252 34.6973 23.5871 42.6059 43.6343 46.57 20.0492 3.964 30.3257 4.213 30.3257 4.213l8.9897-33.797s-30.4971-10.1758-31.6011-16.897c-1.1025-6.7255 4.5356-26.2375-4.9086-44.9163-8.7802-17.3727-13.7925-18.8627-13.7925-18.8627s-5.3172 3.2523-7.2985 4.8787z"/><path fill="#070506" d="M124.974 310.981c15.807 3.5544 32.2083 5.244 48.3686 6.0953 1.3983.0725 1.7796-2.0925.3692-2.1658-16.1603-.8514-32.5616-2.5409-48.3686-6.0952-1.382-.3113-1.743 1.8557-.3691 2.1658zM181.1771 285.6448c-5.1635-2.3351-10.235-4.8946-15.2704-7.4938-5.9128-3.0497-11.9314-6.113-17.4452-9.852-2.045-1.3864-3.4352-2.4587-4.347-4.8494-1.9547-5.1262-.9547-10.9937-1.2056-16.3474-.3744-8.0208-1.0245-16.3054-3.6234-23.9597-2.6675-7.8566-7.5143-15.4176-14.7128-19.7793-1.2094-.7326-2.1111 1.2737-.9145 1.9996 14.7649 8.9436 17.106 29.5267 17.1418 45.0349.011 4.8673-.4574 10.0441 1.5824 14.617.8972 2.0063 2.1542 3.1925 3.9145 4.4467 5.034 3.5843 10.6258 6.4613 16.086 9.3273 5.8827 3.091 11.8232 6.1158 17.8815 8.8534 1.2909.5838 2.2014-1.4154.9127-1.9973z"/></g><g class="GirlDollar" display="block"><path fill="#070506" d="M239.745 142.828s8.087 6.1416 12.5113 21.1176c4.4223 14.9765 4.6023 31.2999-14.7314 30.5552 0 0 16.0051-14.7767 2.2201-51.6729z"/><path fill="#F69EAA" d="M223.9323 199.6804s-16.7282 9.3827-33.629 6.2468c-15.5511-2.8844-22.3214-10.069-22.3214-10.069s20.384-15.4105 13.4721-25.7711c0 0-6.1866 5.042-12.2547-5.0637-6.068-10.1056-2.4618-21.1102 3.676-23.155 6.138-2.0428 13.5126 4.552 11.9836 11.2065 0 0 4.5442-4.6686 2.6744-14.3447l-1.8714-9.6737 10.1393-6.073 20.3163-6.3742 20.0556 11.4795 1.567 10.2807s9.8117 19.264 7.9558 36.004c-1.8558 16.74-13.104 25.6841-21.7636 25.307z"/><path fill="#070506" d="M244.4213 128.276c1.4343 9.5667-4.6782 14.5523-4.6782 14.5523l-2.1423-3.5696c-.1904 2.4362-1.1754 1.4363-5.8782 1.5166-4.705.0787-8.8802.0244-8.8802.0244s.2681-2.093-.7689-9.8241c-.8659-6.49-4.1425-11.0508-5.1762-12.3327 3.228 4.2788 3.5606 14.3615 2.7464 18.5378-.8514 4.3108-4.1336 2.8566-10.3874 3.3075-3.9429.2752-8.7133.7557-11.6953 1.0735-1.3113.1387-2.334-1.0617-2.036-2.3456.985-4.2488.8048-9.2637.6097-11.8729.4372 8.9883-6.2799 13.3972-6.2799 13.3972.307 5.3195-3.4599 10.443-4.6429 11.9115-.0721.0947-.1401.1702-.1848.2306a1.6273 1.6273 0 00-.074.0952c-.0199.0225-.0378.0344-.0475.0466-.0394.0368-.0471.0487-.0471.0487 1.5242-6.6577-5.8463-13.243-11.9805-11.201-6.1464 2.0425-9.746 13.0498-3.6798 23.1558 5.5733 9.2813 11.2635 5.7771 12.1337 5.14.134.1232.2961.2834.4712.486l.0122.0096c6.2932 10.1955 2.7812 16.8635-.4003 21.0619-9.7693 12.8891-33.731 4.848-37.6085-13.4906-3.8658-18.341-1.1541-32.6731 9.1202-51.5232 10.2686-18.8386 26.524-29.4098 52.9251-28.066 26.4132 1.3431 37.1293 20.0752 38.5695 29.6305z"/><path fill="#AB070C" d="M166.7633 149.2362c-.2898 1.0003-.4964 2.0567-.6127 3.1638-2.7193 1.8505.0912 3.7076-2.998 5.1755-3.4156 1.6178-3.7884-4.9567 3.6107-8.3393zM197.591 148.843s-4.4229-.311-10.4199-.118c-.7991.0278-1.6202.0581-2.473.1032a9.2961 9.2961 0 00-.947-2.1396c1.4364-.0873 2.7535-.1496 3.9593-.1867 5.5759-.2236 8.6495-.0927 8.6495-.0927l1.231 2.4339z"/><path fill="#FEFEFF" d="M205.9926 147.2984c-4.1018 1.2175-1.9303 4.6238.719 4.4347 2.6492-.1892 4.6951.1869 5.753.5566 1.0554.3682 3.094.5332 3.708-1.3907.729-2.283-4.9643-5.1486-10.18-3.6006zM230.6535 148.762c-2.6117 1.2703-2.1136 4.519.9735 4.1568 3.0871-.3622 4.7819.0933 6.0074.4341 1.2297.342 2.249-.4917 2.189-2.2179-.0768-2.219-5.3399-4.2365-9.17-2.373z"/><path fill="#070506" d="M218.1639 201.0475c7.9729 2.1386 16.7677-1.1349 22.0185-7.2932 9.0317-10.588 8.7651-25.8187 5.6017-38.6-1.6377-6.615-4.0764-13.0444-7.0394-19.1765-1.0836-2.246-4.5351-.4777-3.4468 1.7714 4.7766 9.8888 8.4703 20.874 8.6259 31.9497.16 11.1463-4.3666 24.956-16.6386 27.623-1.9056.414-3.8455.5265-5.7881.3619-.9338-.079-1.6325-.1865-2.1023-.3132-2.4024-.645-3.6439 3.0301-1.231 3.677z"/><path fill="#AB070C" d="M242.4645 140.6546c-7.7238 1.6893-13.6147 8.6187-13.6147 8.6187-2.6735-2.1207-6.1867-.031-6.1867-.031-7.6778-5.8062-20.8677-7.9594-25.7457-7.3972-4.868.552-1.5066 9.122 7.4042 14.8446 8.9111 5.7245 14.8862-.1355 14.8862-.1355 2.5177 1.4034 3.1768-3.6335 3.1768-3.6335 3.488-2.7096 6.7075-.1757 6.7075-.1757s.104.8118 1.302 2.7153c1.2103 1.913 5.7546 5.1757 9.9815.7101 4.2393-4.4558 9.8131-17.1929 2.0889-15.5158zm-23.5816 13.863c-2.5658 2.2046-8.3605 2.809-12.5832.4702-4.211-2.331-11.5993-10.97-1.7855-10.1431 9.8142.8288 15.8777 5.9972 15.8777 5.9972s1.0465 1.461-1.509 3.6757zm24.384-8.0299c-.0441 4.6552-5.7301 12.3508-9.9572 9.306 0 0-2.268-1.0488-2.8793-3.1461-.6153-2.1068 1.0189-3.6552 4.796-6.272 3.7787-2.619 8.0963-4.5455 8.0404.1121z"/><path fill="#070506" d="M231.0232 164.8885c.0145-.0091.0167-.0178.0331-.0273-.0183.01-.0315.025-.049.0388l.007-.0055c.0039-.0008.0054-.0032.009-.006z"/><path fill="#070506" d="M233.7027 163.2875c-1.1289-3.912-2.3903-7.7839-3.7625-11.6185-.1984-.5592-1-.7189-1.478-.474-.5851.2998-.6784.92-.4776 1.4807 1.293 3.612 2.466 7.2655 3.531 10.9496.0024.0608-.0085.1162.0003.1777.004.0196.0058.0376.008.0576a.284.284 0 01.0008.0632c-.0016.0902-.0122.1762-.0244.2645-.0184.059-.0348.1176-.0555.175-.013.0355-.0269.067-.0403.1004-.036.0525-.1425.1789-.1655.245-.0385.0407-.0817.0783-.125.116-.0104.0083-.0343.0214-.0577.0365.0367-.02.0567-.022-.0346.0297-.0156.0135-.037.0282-.039.0388.0023-.0087.014-.0213.0241-.0316-.0476.0263-.0933.0521-.1437.075-.0164.0095-.0336.0151-.0524.0231-.0837.0195-.1768.0533-.2536.0672-.016.0013-.08.0085-.1117.0131a2.9173 2.9173 0 01-.2068-.012.4603.4603 0 00-.04-.006l-.037-.0106c-.026-.0069-.0523-.0157-.0763-.023-.048-.0144-.0932-.0356-.142-.054-.052-.0341-.1057-.0658-.1578-.1-.0023-.0015.0024.0016 0 0-.026-.0272-.0537-.052-.0779-.0797-.0242-.0276-.0491-.0592-.076-.0904-.028-.0554-.055-.107-.083-.1624l-.0016-.0079c-.0013-.0058-.0064-.0109-.0076-.0168-.0161-.0477-.0431-.089-.065-.1355-.0412-.0895-.085-.1723-.1485-.251a.4867.4867 0 00-.04-.0448c-.2522-.2886-.6205-.4671-1.024-.3645-.4634.1192-.8478.5487-.8578 1.0391l.0016.0078c-.008.1284-.0226.254-.0349.3812l-.0126.0374c-.0027.0067-.0054.0134-.0061.0196-.0743.036-.1497.066-.2244.1a2.7061 2.7061 0 01-.3747.074c-.0694.0003-.14.0048-.2068-.0017-.029-.0022-.0608-.0078-.0903-.0118l-.002.0004c-.0463-.017-.1564-.045-.2434-.08-.0114-.0058-.0114-.0058-.0319-.0158-.0493-.0306-.1005-.0608-.1483-.0937-.033-.0217-.0674-.0493-.0967-.0718-.0727-.0747-.1447-.1455-.209-.228l-.021-.0223c-.013-.0238-.0274-.0535-.033-.0605-.0585-.1042-.1037-.2133-.1455-.3251-.093-.24-.3984-.4603-.6312-.5384-.2573-.0873-.6098-.073-.851.0631-.243.1386-.4592.3553-.5385.6313-.0861.302-.0467.5594.0632.851.4683 1.2262 1.78 2.1171 3.0907 2.103.7585-.007 1.5115-.2172 2.1143-.6965.0156-.0134.0245-.0296.042-.0435.0185.0105.0289.0308.0494.0408.7583.3934 1.6493.512 2.4712.2505.7836-.2493 1.4954-.735 1.9095-1.4628.3208-.5675.431-1.185.4167-1.8216.0652-.177.097-.3675.0413-.5561zM203.54 144.004c1.6703-1.4825 3.784-2.1136 5.9987-1.8197 2.1456.2857 4.2073 1.5697 6.0965 2.81 2.09 1.37 4.2148-1.8704 2.1269-3.2408-2.502-1.6416-5.185-3.1412-8.2095-3.4683-3.1102-.3358-6.289.781-8.6133 2.8413-.7826.6945-.8332 1.9697-.1372 2.7398.709.7837 1.9517.8349 2.7378.1376zM228.9728 144.477c.2456-.4088.5138-.7978.8021-1.1787.0846-.1136.149-.1864.019-.0366a6.6396 6.6396 0 01.3036-.327 6.4815 6.4815 0 01.5196-.4863c.086-.0772.1906-.144.2758-.2251.2047-.1939-.219.1254.0327-.0293.2158-.1308.4282-.259.6543-.3694.1114-.054.231-.0973.3416-.155.2581-.1336-.2443.053.0403-.0126.2748-.0634.5394-.137.8183-.181.1606-.0232.2397.0032.0376-.0057.126.0064.2514.0006.3758.0094.1119.0073.2226.019.3313.031.192.0192.1683.0425-.0036-.0074.2132.0617.4262.1133.634.1885.1038.0375.207.0814.3092.1213.1621.0622.1772.0754.011-.0063.8636.4184 1.6405 1.0081 2.3941 1.5946.8046.6248 2.177.2894 2.6842-.5601.5733-.9634.2963-2.017-.5596-2.6822-2.0506-1.5928-4.323-2.8389-7.0062-2.4793-2.7187.365-4.8963 2.413-6.259 4.675-.5215.869-.364 2.1334.5597 2.6823.8747.5203 2.1259.3675 2.6842-.56zM208.1195 152.185c2.7332-.5703 1.8506-4.8196-.8864-4.2485-2.7332.5703-1.8506 4.8196.8864 4.2485zM233.042 152.8953c2.185-.4559 1.4806-3.8516-.7083-3.3949-2.1869.4563-1.4824 3.852.7084 3.395zM203.9108 167.9102s7.8332 6.3254 21.0398 6.953c0 0-.3614 9.9394-10.525 9.7862-10.1636-.1533-12.6722-14.007-12.6722-14.007l2.1574-2.7322z"/><path fill="#FEFEFF" d="M220.059 174.3516c-.7632 3.892-4.1341 3.8434-8.2704 1.6644-3.333-1.7563-5.1758-5.2515-5.8377-6.7295 2.5456 1.5466 7.4002 3.9763 14.108 5.065z"/><path fill="#F92040" d="M215.262 184.624c-.265.0226-.5438.0276-.8333.0206-6.9334-.104-10.3105-6.595-11.7484-10.6958 2.0388.2734 5.213 1.033 7.693 3.147 3.0082 2.5595 4.3911 5.9853 4.8888 7.5282z"/><path fill="#070506" d="M222.3024 187.2084c-2.1203 1.3434-4.5338 2.0452-7.0228 1.9843-.5912-.0135-1.1281.4193-1.1646 1.0276-.0372.5757.4308 1.1543 1.026 1.167 2.8687.0695 5.7391-.6847 8.1661-2.2229.4998-.3167.7647-.9175.4757-1.4803-.2516-.491-.977-.7952-1.4804-.4757zM181.8802 169.1237c.1407-.295-.0067-.0027-.0439.0541a3.0197 3.0197 0 01-.1518.232 4.3475 4.3475 0 01-.085.1116c-.073.0909-.0562.073.0506-.0514-.0071-.0046-.1236.132-.1439.1526a4.201 4.201 0 01-.4209.3718 8.152 8.152 0 01-.115.0853c.1396-.0945.1591-.1088.0624-.0436a5.3963 5.3963 0 01-.21.1296 5.0015 5.0015 0 01-.5257.271c-.0988.0452-.2032.0833-.3025.1265-.2142.0897.2163-.0696-.0665.0241-.4017.1308-.8148.2272-1.231.308-.5632.1113-.9954.7327-.8498 1.303.1504.5836.6964.9682 1.2991.8506.9677-.1897 1.9628-.4729 2.803-.9996.3976-.2485.7808-.5266 1.1016-.8694.3903-.4206.6633-.8453.9097-1.3584.1157-.2387.0528-.628-.0632-.851-.1184-.2348-.3686-.4645-.6273-.5393-.2765-.0812-.5934-.0825-.8507.0651-.265.1493-.4081.3549-.5392.6274zM173.6785 150.2613c1.6517-.4264 3.0381.451 3.9245 1.8106.7335 1.1259.8981 2.4338.9808 3.7507.0667 1.0832.011 2.2165-.4439 3.2185-.5532 1.2167-1.6543 2.0001-2.8196 2.5742-1.2673.624-.2665 2.5809 1.0043 1.9541 1.6508-.8123 3.0649-1.9961 3.8364-3.6935.646-1.4178.6946-2.9868.5744-4.5125-.154-1.923-.564-3.6232-1.7935-5.1686-1.3663-1.711-3.5389-2.6449-5.712-2.0832-1.3644.3542-.9237 2.5055.4486 2.1497zM226.8487 173.7276c-7.2364.4414-15.4159-1.5805-21.1578-6.1378.273-.5616.5008-1.1444.6213-1.7518.118-.5803-.0817-1.1843-.6945-1.3894-.5054-.1704-1.2711.1058-1.3879.692-.0655.3324-.153.6571-.2684.9754-.0502.1413-.109.2802-.1683.4172-.0173.0445-.022.0516-.03.0716-.0035.0028-.002.0005-.0182.0304a4.0897 4.0897 0 01-.1058.1978c-.3568.6404-.6522 1.0064-1.1459 1.4506-.9812.879-2.312 1.365-3.5687 1.3637-.5719.0008-1.1549.4085-1.1666 1.028-.009.5637.4105 1.1647 1.0256 1.165 1.8635.0014 3.6815-.6272 5.0971-1.8521.206-.1779.3879-.3833.573-.5834 3.055 2.4313 6.7523 4.044 10.4914 5.1027 3.804 1.0756 7.8108 1.6554 11.765 1.4147 1.3941-.0846 1.5469-2.28.1387-2.1946z"/></g><path d="M305.2183 40.8844l.4362 3.2081c.0164.1205.0716.2165.1657.2881.0941.0716.2014.0992.322.0828l4.4506-.605c.1205-.0165.2165-.0717.288-.1658.0716-.0941.0992-.2014.0829-.3219l-.4362-3.208 3.208-.4362c.1206-.0164.2166-.0717.2882-.1658.0716-.094.0992-.2014.0828-.3218l-.6051-4.4507c-.0164-.1205-.0716-.2165-.1657-.2881-.0941-.0716-.2014-.0992-.322-.0828l-3.208.4362-.4362-3.2081c-.0163-.1205-.0716-.2166-.1657-.2881-.094-.0716-.2014-.0992-.3219-.0828l-4.4506.605c-.1205.0164-.2165.0717-.2881.1658-.0716.094-.0992.2014-.0828.3219l.4361 3.208-3.208.4362c-.1205.0164-.2166.0716-.2881.1657-.0716.0941-.0992.2014-.0828.322l.605 4.4506c.0164.1205.0717.2165.1658.288.094.0717.2014.0993.3219.0829l3.208-.4362z" display="block" fill="#439CB7" font-size="60" font-family="MOON GET!" aria-label="+" opacity=".4264"/><path d="M318.4924 81.4416l.9751 7.1725c.0367.2694.1602.484.3706.6441.2103.16.4502.2217.7196.1851l9.9506-1.3528c.2694-.0366.484-.1601.6441-.3705.16-.2104.2217-.4503.1851-.7197l-.9751-7.1725 7.1725-.975c.2693-.0367.484-.1602.644-.3706.1601-.2104.2218-.4503.1852-.7197l-1.3528-9.9505c-.0367-.2694-.1602-.4841-.3706-.6441-.2103-.16-.4502-.2218-.7196-.1851l-7.1725.975-.9751-7.1724c-.0366-.2694-.1602-.484-.3705-.6441-.2104-.16-.4503-.2217-.7197-.1851l-9.9506 1.3528c-.2693.0366-.484.1601-.644.3705-.1601.2104-.2218.4503-.1852.7197l.9751 7.1725-7.1724.975c-.2694.0367-.4841.1602-.6442.3706-.16.2104-.2217.4503-.185.7197l1.3528 9.9505c.0366.2694.16.4841.3705.6441.2104.16.4502.2218.7196.1851l7.1725-.975z" display="block" fill="#B3E2E0" font-size="60" font-family="MOON GET!" aria-label="+"/><path stroke="#2F7393" stroke-width="2.5" d="M235.5 392s-14 1-19 5.5c1.5 5.5 3 49.5 2.5 57s-1.5 18-7.5 22-14.9894 8.213-33.053 9.8199" fill="none" display="block"/></g></svg>