<svg class="" width="92" height="30" viewBox="0 0 168 40" version="1.1" xmlns="http://www.w3.org/2000/svg" xmlns:xlink="http://www.w3.org/1999/xlink">
          <title>D2E90398-86ED-476F-BDF3-817CBFB99ABB@1.00x</title>
          <g id="Home" stroke="none" stroke-width="1" fill="none" fill-rule="evenodd">
              <g id="home-/-desktop" transform="translate(-164.000000, -9903.000000)" fill="none">
                  <g id="block-/-footer--/-desktop" transform="translate(0.000000, 9743.000000)" fill="none">
                      <g id="Gojek-Logo" transform="translate(164.000000, 160.000000)" fill="none">
                          <ellipse id="Oval" cx="19.9903148" cy="20" rx="19.9903148" ry="20" fill="none"></ellipse>
                          <!-- logo solv -->
                          <g class="c-header__logo-solv transition-colors duration-100 ease-out fill-current" id="Group" fill="#FFFFFF">
                              <path d="M19.955244,7.10542736e-15 C30.9323818,7.10542736e-15 39.8754174,8.9122807 39.8052759,19.9298246 C39.8052759,28.2105263 34.8252326,35.2631579 27.6006627,38.3157895 C27.2148847,38.4912281 26.6888238,38.5964912 26.1627628,38.5964912 C24.1286606,38.5964912 22.4452657,36.9473684 22.4452657,34.877193 C22.4452657,33.3333333 23.3921754,32 24.724863,31.4385965 L24.724863,31.4385965 L25.0036771,31.3190047 C29.3440614,29.3929703 32.3702816,25.0153509 32.3702816,19.9649123 C32.3702816,13.0877193 26.7940359,7.50877193 19.9201733,7.50877193 C13.0463107,7.50877193 7.47006499,13.0877193 7.47006499,19.9649123 C7.47006499,25.122807 10.6264305,29.5438596 15.1154836,31.4385965 L15.1154836,31.4385965 L15.2947699,31.5198835 C16.5322975,32.1216471 17.3950809,33.4035088 17.3950809,34.877193 C17.3950809,36.9122807 15.7467567,38.5964912 13.6775838,38.5964912 C13.1865936,38.5964912 12.625462,38.4912281 12.239684,38.3157895 C5.01511406,35.2280702 0.0350707277,28.1754386 0.0350707277,19.9298246 C0.0350707277,8.9122807 8.97810628,7.10542736e-15 19.955244,7.10542736e-15 Z M19.955244,12.4210526 C24.080847,12.4210526 27.425309,15.767135 27.425309,19.8947368 C27.425309,24.0223387 24.080847,27.3684211 19.955244,27.3684211 C15.8296411,27.3684211 12.485179,24.0223387 12.485179,19.8947368 C12.485179,15.767135 15.8296411,12.4210526 19.955244,12.4210526 Z" id="Combined-Shape" fill="#FFFFFF"></path>
                          </g>
                          <ellipse id="Oval" cx="19.9903148" cy="20" rx="19.9903148" ry="20" fill="none"></ellipse>
                          <!-- logo text -->
                          <path class="c-header__logo-text transition-colors duration-100 ease-out fill-current" d="M112.797463,6.61971831 L112.797463,32.2887324 C112.797463,37.6760563 110.615421,40 104.808376,40 L101.0074,40 L101.0074,34.4014085 L104.315657,34.4014085 C106.075367,34.4014085 106.708863,33.7323944 106.708863,32.1830986 L106.708863,6.61971831 L112.797463,6.61971831 Z M74.8229035,6.58450704 L74.8229035,29.0492958 C74.8229035,35.2816901 70.0716843,39.9647887 63.1032295,39.9647887 C58.5279814,39.9647887 54.5158408,38.3450704 51.8410804,35.528169 L51.8410804,35.528169 L55.8180268,31.6901408 C57.5425434,33.3802817 59.5486137,34.3309859 62.9624527,34.3309859 C66.3762916,34.3309859 68.9454694,32.1478873 68.9454694,29.1549296 L68.9454694,29.1549296 L68.9454694,26.9366197 L68.875081,26.9366197 C67.3617297,28.6267606 64.8277461,29.5774648 61.8010435,29.5774648 C55.043754,29.5774648 49.9757869,24.6830986 49.9757869,17.9929577 C49.9757869,11.5492958 54.9029772,6.58450704 61.5898783,6.58450704 C64.6869693,6.58450704 67.2913413,7.5 68.875081,9.15492958 L68.875081,9.15492958 L68.9454694,9.15492958 L68.9454694,6.58450704 L74.8229035,6.58450704 Z M90.7658834,6.58450704 C97.9806977,6.58450704 103.083859,11.6197183 103.083859,18.1338028 C103.083859,24.6478873 97.9806977,29.6830986 90.7658834,29.6830986 C83.6214576,29.6830986 78.4479078,24.6478873 78.4479078,18.1338028 C78.4479078,11.6197183 83.5862633,6.58450704 90.7658834,6.58450704 Z M128.212529,6.58450704 C135.532926,6.58450704 140.07298,11.7957746 140.07298,18.3450704 L140.07298,18.3450704 L140.07298,20.0704225 L122.37029,20.0704225 C122.475872,22.3591549 125.326604,24.7183099 128.986802,24.7183099 C131.450397,24.7183099 133.104525,24.084507 134.934625,22.3943662 L134.934625,22.3943662 L139.052348,25.2816901 C137.292637,27.4295775 133.913992,29.6830986 129.233162,29.6830986 C121.560823,29.6830986 116.352079,25.1056338 116.352079,18.1690141 C116.352079,11.443662 121.279269,6.58450704 128.212529,6.58450704 Z M149.575419,5.32907052e-15 L149.610613,15.7746479 L149.681001,15.7746479 L159.535382,6.51408451 L167.418886,6.51408451 L157.212564,16.1971831 L167.383692,29.6478873 L160.344849,29.6478873 L153.376394,19.9295775 L153.306006,19.9295775 L149.610613,23.4507042 L149.610613,29.6830986 L143.733179,29.6830986 L143.733179,5.32907052e-15 L149.575419,5.32907052e-15 Z M90.7658834,11.9366197 C86.9649081,11.9366197 84.5365072,14.5774648 84.5365072,18.1338028 C84.5365072,21.6901408 86.9649081,24.3309859 90.7658834,24.3309859 C94.5668588,24.3309859 96.9952597,21.6549296 96.9952597,18.1338028 C96.9952597,14.5774648 94.5668588,11.9366197 90.7658834,11.9366197 Z M62.7160932,11.971831 C58.6687583,11.971831 56.0643863,14.4366197 56.0643863,17.9929577 C56.0643863,21.8661972 58.4927872,24.1901408 62.4345394,24.1901408 C65.9187668,24.1901408 68.6639157,22.0422535 68.6639157,19.3309859 L68.6639157,19.3309859 L68.6991099,19.3309859 L68.6991099,16.7605634 C68.6991099,14.2253521 65.9187668,11.971831 62.7160932,11.971831 Z M128.353306,11.5140845 C125.080244,11.5140845 122.79262,13.2042254 122.440678,15.7746479 L122.440678,15.7746479 L134.160352,15.7746479 C133.878798,13.2042254 131.591174,11.5140845 128.353306,11.5140845 Z" id="Combined-Shape" fill="#FFFFFF"></path>
                      </g>
                  </g>
              </g>
          </g>
        </svg>